<svg width="512" height="513" viewBox="0 0 512 513" fill="none" xmlns="http://www.w3.org/2000/svg">
<path d="M248.006 0.529675C220.707 2.3896 193.949 13.5492 169.829 33.1684C163.65 38.2082 151.11 50.7477 145.83 57.1675C117.692 91.3661 100.412 134.864 95.7324 183.223C94.1724 199.482 94.4724 227.381 96.3924 239.44C96.7523 241.66 97.8323 242.08 97.8323 239.98C97.8323 237.82 102.692 221.321 105.812 212.921C128.851 151.004 177.209 109.185 246.026 91.7261C278.005 83.6264 315.384 81.4065 351.922 85.4263C368.602 87.2863 391.341 91.6661 409.22 96.5259C426.079 101.086 450.498 110.085 464.898 116.925C469.038 118.905 472.578 120.405 472.698 120.225C473.058 119.865 466.698 110.265 460.998 102.706C437.599 71.3869 405.68 44.6879 370.822 27.2286C345.923 14.7491 317.424 6.04946 289.225 2.3296C281.665 1.36964 257.666 -0.310292 255.326 0.0496941C255.026 0.0496941 251.726 0.289685 248.006 0.529675Z" fill="#E1341E"/>
<path d="M112.412 44.208C57.0939 82.3065 19.4154 138.164 5.49593 202.842C0.996109 223.721 -1.10381 251.38 0.576126 267.699C3.15602 292.238 12.5757 315.637 28.535 336.816C57.2739 374.975 103.172 402.094 157.11 412.713C175.289 416.313 184.289 417.093 206.128 417.153C224.007 417.153 239.067 416.373 240.747 415.353C241.107 415.113 237.867 414.093 233.607 412.953C214.228 407.974 195.448 400.114 178.589 390.034C155.79 376.355 132.391 353.136 117.932 329.917C102.212 304.538 91.2326 273.519 86.4327 240.94C84.0328 224.321 83.7329 220.121 83.7329 197.022C83.7329 173.203 84.0928 167.683 86.7927 148.904C91.6525 114.525 102.572 77.6267 116.792 47.3879C120.031 40.4881 120.391 39.5282 119.611 39.5282C119.311 39.5882 116.132 41.6881 112.412 44.208Z" fill="#961EE1"/>
<path d="M295.225 95.1461C285.265 95.5661 272.065 96.646 271.645 97.066C271.346 97.366 273.685 98.206 276.745 98.9259C297.684 104.086 321.684 114.465 338.723 125.805C351.202 134.085 358.822 140.444 369.322 151.184C403.16 185.923 422.24 231.101 427.939 290.018C429.019 301.718 428.839 332.137 427.579 344.916C423.38 387.575 412.82 426.933 395.421 464.911C393.441 469.291 391.881 472.951 392.001 473.071C392.301 473.431 405.2 464.552 412.04 459.332C437.659 439.652 460.158 414.333 476.657 386.615C499.217 348.756 511.936 303.398 511.996 260.62C512.056 247.66 511.456 240.94 509.296 230.981C499.697 185.922 465.438 145.424 415.76 120.465C379.761 102.406 336.623 93.3462 295.225 95.1461Z" fill="#6AE11E"/>
<path d="M192.329 189.762C162.93 202.662 137.731 224.261 120.931 251.02L117.692 256.18L120.511 260.799C125.251 268.659 133.771 279.459 141.271 287.198C153.51 299.738 165.87 309.217 180.089 316.837C187.469 320.797 198.388 325.717 199.768 325.717C200.188 325.717 198.808 324.277 196.768 322.477C186.689 313.657 177.269 299.798 172.529 286.718C169.229 277.539 167.97 270.399 167.61 259.299C167.37 252.7 167.55 247.24 168.03 244C170.909 224.201 179.909 206.681 194.608 192.342C197.848 189.162 200.368 186.522 200.068 186.522C199.768 186.582 196.288 188.022 192.329 189.762Z" fill="#FCFAFA"/>
<path d="M318.084 192.702C331.223 205.722 339.383 220.541 343.283 238.72C344.423 244 344.663 246.94 344.663 256.42C344.723 266.259 344.543 268.659 343.343 274.059C339.323 291.998 331.643 306.098 318.864 318.937C315.204 322.657 312.384 325.717 312.564 325.717C313.644 325.717 321.383 322.237 329.123 318.337C338.063 313.837 349.222 306.638 356.842 300.458C362.902 295.598 375.501 282.938 380.421 276.879C385.041 271.119 394.221 257.499 394.221 256.36C394.221 253.48 380.361 235.18 370.582 225.041C361.762 215.921 354.082 209.561 343.523 202.542C336.503 197.862 320.184 189.342 314.604 187.482L311.844 186.522L318.084 192.702Z" fill="#FCFAFA"/>
<path d="M244.946 196.362C238.227 197.682 238.227 197.622 242.367 200.382C247.046 203.502 250.346 207.342 252.926 212.681C261.386 230.081 251.966 250.3 233.067 255.22C220.767 258.4 206.908 252.88 200.068 242.08C199.108 240.58 198.148 239.32 197.968 239.32C197.368 239.32 196.168 245.5 195.628 251.26C194.069 268.719 200.068 285.639 212.368 298.358C217.768 303.878 222.387 307.298 228.927 310.538C238.527 315.337 245.726 316.957 256.826 316.897C263.426 316.837 266.006 316.537 270.745 315.337C292.345 309.698 308.364 294.158 314.724 272.619C316.704 265.959 317.424 254.5 316.224 247.24C312.924 226.721 300.504 210.042 281.965 201.222C273.025 197.022 268.766 196.062 258.326 195.762C252.266 195.642 247.886 195.822 244.946 196.362Z" fill="#FCFAFA"/>
<path d="M414.62 271.899C414.62 273.639 409.7 290.438 407.18 297.458C395.901 328.237 378.981 353.856 356.422 374.015C342.383 386.614 329.663 395.134 312.324 403.714C290.545 414.453 269.906 420.933 243.447 425.313C218.548 429.453 186.629 429.993 158.13 426.753C120.271 422.493 81.093 411.333 45.0944 394.654C42.3345 393.334 39.9346 392.434 39.7546 392.614C39.3346 393.034 46.5943 403.894 52.4141 411.513C76.1132 442.592 107.192 468.271 142.171 485.611C178.709 503.73 222.147 513.569 259.226 512.07C273.865 511.53 282.865 509.85 297.024 504.99C317.364 498.03 337.643 484.951 354.922 467.611C401.12 421.293 423.859 349.536 416 274.599C415.82 272.679 415.4 271.119 415.16 271.119C414.86 271.119 414.62 271.479 414.62 271.899Z" fill="#1ECBE1"/>
</svg>
