<svg width="781" height="228" viewBox="0 0 781 228" fill="none" xmlns="http://www.w3.org/2000/svg">
<path d="M37.812 87.232C37.812 92.5067 38.732 96.7387 40.572 99.928C42.412 103.056 45.6933 104.62 50.416 104.62C55.2 104.62 58.512 103.056 60.352 99.928C62.192 96.7387 63.112 92.5067 63.112 87.232V53.468H95.128V90.544C95.128 98.8853 93.38 106.123 89.884 112.256C86.388 118.328 81.2973 123.02 74.612 126.332C67.988 129.583 59.9227 131.208 50.416 131.208C40.9707 131.208 32.936 129.583 26.312 126.332C19.688 123.02 14.5973 118.328 11.04 112.256C7.544 106.123 5.796 98.8853 5.796 90.544V53.468H37.812V87.232ZM153.092 51.26C158.551 51.26 163.856 52.3333 169.008 54.48C174.16 56.6267 178.392 60.0613 181.704 64.784C185.078 69.5067 186.764 75.6707 186.764 83.276V129H154.104V88.52C154.104 83.92 153 80.3933 150.792 77.94C148.584 75.4253 145.64 74.168 141.96 74.168C139.568 74.168 137.33 74.7813 135.244 76.008C133.159 77.2347 131.472 78.952 130.184 81.16C128.958 83.368 128.344 85.944 128.344 88.888V129H95.7763V53.468H128.344V63.68C129.142 61.656 130.706 59.724 133.036 57.884C135.367 55.9827 138.28 54.4187 141.776 53.192C145.272 51.904 149.044 51.26 153.092 51.26ZM189.056 129V53.468H221.532V129H189.056ZM205.708 41.876C200.74 41.876 196.508 40.128 193.012 36.632C189.577 33.136 187.86 28.9653 187.86 24.12C187.86 19.2747 189.577 15.0733 193.012 11.516C196.508 7.95866 200.74 6.18 205.708 6.18C208.958 6.18 211.933 7.00799 214.632 8.66399C217.33 10.2587 219.508 12.4053 221.164 15.104C222.82 17.8027 223.648 20.808 223.648 24.12C223.648 28.9653 221.869 33.136 218.312 36.632C214.816 40.128 210.614 41.876 205.708 41.876ZM219.4 53.468H254.268L270 99.56L285.824 53.468H320.508L289.136 129H250.956L219.4 53.468ZM344.411 97.812C344.656 99.836 345.453 101.615 346.803 103.148C348.213 104.62 350.053 105.785 352.323 106.644C354.653 107.441 357.383 107.84 360.511 107.84C363.577 107.84 366.46 107.625 369.159 107.196C371.857 106.705 374.249 106.061 376.335 105.264C378.481 104.467 380.168 103.577 381.395 102.596L393.447 122.836C392.097 124.001 390.073 125.228 387.375 126.516C384.676 127.804 380.965 128.908 376.243 129.828C371.581 130.748 365.601 131.208 358.303 131.208C349.839 131.208 342.233 129.705 335.487 126.7C328.74 123.695 323.404 119.187 319.479 113.176C315.553 107.104 313.591 99.5293 313.591 90.452C313.591 83.092 315.247 76.468 318.559 70.58C321.871 64.6307 326.655 59.9387 332.911 56.504C339.167 53.008 346.741 51.26 355.635 51.26C364.16 51.26 371.551 52.7627 377.807 55.768C384.063 58.712 388.877 63.1893 392.251 69.2C395.624 75.2107 397.311 82.816 397.311 92.016C397.311 92.5067 397.28 93.488 397.219 94.96C397.219 96.432 397.157 97.3827 397.035 97.812H344.411ZM366.675 83.092C366.613 81.068 366.153 79.2587 365.295 77.664C364.497 76.0693 363.332 74.812 361.799 73.892C360.265 72.972 358.395 72.512 356.187 72.512C354.04 72.512 352.139 72.9413 350.483 73.8C348.827 74.6587 347.539 75.8853 346.619 77.48C345.699 79.0133 345.177 80.884 345.055 83.092H366.675ZM427.088 129H394.52V53.468H427.088V64.6H426.628C427.242 63.2507 428.468 61.5333 430.308 59.448C432.21 57.3627 434.847 55.492 438.22 53.836C441.655 52.1187 445.918 51.26 451.008 51.26C454.443 51.26 457.694 51.812 460.76 52.916C463.827 54.02 466.066 55.0933 467.476 56.136L454.964 82.54C454.167 81.3747 452.664 80.2093 450.456 79.044C448.248 77.8173 445.519 77.204 442.268 77.204C438.588 77.204 435.614 78.032 433.344 79.688C431.136 81.2827 429.542 83.276 428.56 85.668C427.579 88.06 427.088 90.36 427.088 92.568V129ZM495.854 51.26C501.129 51.26 505.943 51.6893 510.298 52.548C514.714 53.4067 518.363 54.3573 521.246 55.4C524.19 56.3813 526.03 57.148 526.766 57.7L516.554 76.652C515.45 75.8547 513.303 74.812 510.114 73.524C506.986 72.1747 503.521 71.5 499.718 71.5C497.203 71.5 495.118 71.8067 493.462 72.42C491.867 72.972 491.07 73.9533 491.07 75.364C491.07 76.7133 492.021 77.848 493.922 78.768C495.823 79.6267 498.706 80.3933 502.57 81.068C506.066 81.7427 509.746 82.8773 513.61 84.472C517.474 86.0053 520.725 88.3667 523.362 91.556C526.061 94.684 527.41 98.8853 527.41 104.16C527.41 109.803 526.183 114.403 523.73 117.96C521.277 121.456 518.057 124.185 514.07 126.148C510.145 128.049 505.882 129.368 501.282 130.104C496.743 130.84 492.389 131.208 488.218 131.208C482.085 131.208 476.779 130.656 472.302 129.552C467.825 128.509 464.237 127.313 461.538 125.964C458.901 124.615 457.091 123.572 456.11 122.836L466.138 101.768C467.733 103.056 470.309 104.528 473.866 106.184C477.485 107.84 481.226 108.668 485.09 108.668C488.525 108.668 491.101 108.3 492.818 107.564C494.597 106.767 495.486 105.693 495.486 104.344C495.486 103.301 495.057 102.443 494.198 101.768C493.339 101.093 492.082 100.48 490.426 99.928C488.77 99.376 486.685 98.8547 484.17 98.364C481.901 97.9347 479.386 97.2293 476.626 96.248C473.866 95.2053 471.229 93.764 468.714 91.924C466.261 90.084 464.206 87.7533 462.55 84.932C460.955 82.0493 460.158 78.5533 460.158 74.444C460.158 69.1693 461.875 64.8453 465.31 61.472C468.745 58.0373 473.161 55.492 478.558 53.836C484.017 52.1187 489.782 51.26 495.854 51.26ZM648.991 101.032L667.483 53.468H699.315L646.967 167.272H614.491L632.063 129L600.415 53.468H632.707L648.991 101.032ZM720.964 97.812C721.209 99.836 722.006 101.615 723.356 103.148C724.766 104.62 726.606 105.785 728.876 106.644C731.206 107.441 733.936 107.84 737.064 107.84C740.13 107.84 743.013 107.625 745.712 107.196C748.41 106.705 750.802 106.061 752.888 105.264C755.034 104.467 756.721 103.577 757.948 102.596L770 122.836C768.65 124.001 766.626 125.228 763.928 126.516C761.229 127.804 757.518 128.908 752.796 129.828C748.134 130.748 742.154 131.208 734.856 131.208C726.392 131.208 718.786 129.705 712.04 126.7C705.293 123.695 699.957 119.187 696.032 113.176C692.106 107.104 690.144 99.5293 690.144 90.452C690.144 83.092 691.8 76.468 695.112 70.58C698.424 64.6307 703.208 59.9387 709.464 56.504C715.72 53.008 723.294 51.26 732.188 51.26C740.713 51.26 748.104 52.7627 754.36 55.768C760.616 58.712 765.43 63.1893 768.804 69.2C772.177 75.2107 773.864 82.816 773.864 92.016C773.864 92.5067 773.833 93.488 773.772 94.96C773.772 96.432 773.71 97.3827 773.588 97.812H720.964ZM743.228 83.092C743.166 81.068 742.706 79.2587 741.848 77.664C741.05 76.0693 739.885 74.812 738.352 73.892C736.818 72.972 734.948 72.512 732.74 72.512C730.593 72.512 728.692 72.9413 727.036 73.8C725.38 74.6587 724.092 75.8853 723.172 77.48C722.252 79.0133 721.73 80.884 721.608 83.092H743.228Z" fill="#FCFAFA"/>
<path d="M554.997 97.812C555.243 99.836 556.04 101.615 557.389 103.148C558.8 104.62 560.64 105.785 562.909 106.644C565.24 107.441 567.969 107.84 571.097 107.84C574.164 107.84 577.047 107.625 579.745 107.196C582.444 106.705 584.836 106.061 586.921 105.264C589.068 104.467 590.755 103.577 591.981 102.596L604.033 122.836C602.684 124.001 600.66 125.228 597.961 126.516C595.263 127.804 591.552 128.908 586.829 129.828C582.168 130.748 576.188 131.208 568.889 131.208C560.425 131.208 552.82 129.705 546.073 126.7C539.327 123.695 533.991 119.187 530.065 113.176C526.14 107.104 524.177 99.5293 524.177 90.452C524.177 83.092 525.833 76.468 529.145 70.58C532.457 64.6307 537.241 59.9387 543.497 56.504C549.753 53.008 557.328 51.26 566.221 51.26C574.747 51.26 582.137 52.7627 588.393 55.768C594.649 58.712 599.464 63.1893 602.837 69.2C606.211 75.2107 607.897 82.816 607.897 92.016C607.897 92.5067 607.867 93.488 607.805 94.96C607.805 96.432 607.744 97.3827 607.621 97.812H554.997ZM577.261 83.092C577.2 81.068 576.74 79.2587 575.881 77.664C575.084 76.0693 573.919 74.812 572.385 73.892C570.852 72.972 568.981 72.512 566.773 72.512C564.627 72.512 562.725 72.9413 561.069 73.8C559.413 74.6587 558.125 75.8853 557.205 77.48C556.285 79.0133 555.764 80.884 555.641 83.092H577.261Z" fill="#E1341E"/>
<path d="M47.544 220.584C47.736 220.584 47.904 220.656 48.048 220.8C48.192 220.928 48.264 221.088 48.264 221.28C48.264 221.488 48.192 221.664 48.048 221.808C47.904 221.936 47.736 222 47.544 222H38.976C38.768 222 38.592 221.928 38.448 221.784C38.32 221.64 38.256 221.472 38.256 221.28V205.92C38.256 205.728 38.328 205.56 38.472 205.416C38.616 205.272 38.8 205.2 39.024 205.2C39.216 205.2 39.384 205.272 39.528 205.416C39.688 205.56 39.768 205.728 39.768 205.92V220.992L39.312 220.584H47.544ZM80.3814 221.256C80.3654 221.464 80.2774 221.64 80.1174 221.784C79.9734 221.928 79.8054 222 79.6134 222C79.3894 222 79.2054 221.928 79.0614 221.784C78.9334 221.64 78.8694 221.464 78.8694 221.256V205.944C78.8694 205.736 78.9414 205.56 79.0854 205.416C79.2294 205.272 79.4134 205.2 79.6374 205.2C79.8294 205.2 79.9974 205.272 80.1414 205.416C80.3014 205.56 80.3814 205.736 80.3814 205.944V221.256ZM113.429 205.2C113.541 205.2 113.653 205.224 113.765 205.272C113.893 205.32 113.997 205.4 114.077 205.512L120.701 215.448L120.053 215.424L126.701 205.512C126.877 205.272 127.093 205.168 127.349 205.2C127.541 205.2 127.701 205.272 127.829 205.416C127.973 205.544 128.045 205.712 128.045 205.92V221.28C128.045 221.472 127.973 221.64 127.829 221.784C127.685 221.928 127.509 222 127.301 222C127.077 222 126.893 221.928 126.749 221.784C126.605 221.64 126.533 221.472 126.533 221.28V207.384L126.965 207.432L120.893 216.624C120.845 216.72 120.773 216.8 120.677 216.864C120.581 216.912 120.469 216.928 120.341 216.912C120.229 216.928 120.117 216.912 120.005 216.864C119.909 216.8 119.829 216.72 119.765 216.624L113.669 207.336L114.125 207.024V221.28C114.125 221.472 114.053 221.64 113.909 221.784C113.781 221.928 113.613 222 113.405 222C113.197 222 113.029 221.928 112.901 221.784C112.773 221.64 112.709 221.472 112.709 221.28V205.92C112.709 205.728 112.773 205.56 112.901 205.416C113.045 205.272 113.221 205.2 113.429 205.2ZM161.913 221.256C161.897 221.464 161.809 221.64 161.649 221.784C161.505 221.928 161.337 222 161.145 222C160.921 222 160.737 221.928 160.593 221.784C160.465 221.64 160.401 221.464 160.401 221.256V205.944C160.401 205.736 160.473 205.56 160.617 205.416C160.761 205.272 160.945 205.2 161.169 205.2C161.361 205.2 161.529 205.272 161.673 205.416C161.833 205.56 161.913 205.736 161.913 205.944V221.256ZM199.233 222C199.009 222 198.825 221.928 198.681 221.784C198.553 221.64 198.489 221.472 198.489 221.28V205.992H199.977V221.28C199.977 221.472 199.905 221.64 199.761 221.784C199.617 221.928 199.441 222 199.233 222ZM193.521 206.568C193.329 206.568 193.161 206.504 193.017 206.376C192.873 206.248 192.801 206.08 192.801 205.872C192.801 205.68 192.873 205.52 193.017 205.392C193.161 205.264 193.329 205.2 193.521 205.2H204.945C205.137 205.2 205.305 205.264 205.449 205.392C205.593 205.52 205.665 205.688 205.665 205.896C205.665 206.104 205.593 206.272 205.449 206.4C205.305 206.512 205.137 206.568 204.945 206.568H193.521ZM245.853 220.584C246.045 220.584 246.213 220.656 246.357 220.8C246.501 220.928 246.573 221.088 246.573 221.28C246.573 221.488 246.501 221.664 246.357 221.808C246.213 221.936 246.045 222 245.853 222H237.285C237.077 222 236.901 221.928 236.757 221.784C236.629 221.64 236.565 221.472 236.565 221.28V205.92C236.565 205.728 236.637 205.56 236.781 205.416C236.925 205.272 237.109 205.2 237.333 205.2C237.525 205.2 237.693 205.272 237.837 205.416C237.997 205.56 238.077 205.728 238.077 205.92V220.992L237.621 220.584H245.853ZM277.899 205.2H286.707C286.899 205.2 287.067 205.272 287.211 205.416C287.355 205.544 287.427 205.712 287.427 205.92C287.427 206.128 287.355 206.296 287.211 206.424C287.067 206.552 286.899 206.616 286.707 206.616H278.451L278.691 206.208V212.952L278.427 212.64H285.627C285.819 212.64 285.987 212.712 286.131 212.856C286.275 213 286.347 213.168 286.347 213.36C286.347 213.568 286.275 213.736 286.131 213.864C285.987 213.992 285.819 214.056 285.627 214.056H278.475L278.691 213.816V220.728L278.571 220.584H286.707C286.899 220.584 287.067 220.656 287.211 220.8C287.355 220.944 287.427 221.112 287.427 221.304C287.427 221.512 287.355 221.68 287.211 221.808C287.067 221.936 286.899 222 286.707 222H277.899C277.707 222 277.539 221.928 277.395 221.784C277.251 221.64 277.179 221.472 277.179 221.28V205.92C277.179 205.728 277.251 205.56 277.395 205.416C277.539 205.272 277.707 205.2 277.899 205.2ZM323.291 222.24C322.075 222.256 321.019 222.064 320.123 221.664C319.227 221.264 318.371 220.664 317.555 219.864C317.475 219.8 317.403 219.72 317.339 219.624C317.291 219.528 317.267 219.416 317.267 219.288C317.267 219.096 317.339 218.92 317.483 218.76C317.643 218.6 317.819 218.52 318.011 218.52C318.203 218.52 318.379 218.6 318.539 218.76C319.163 219.432 319.867 219.944 320.651 220.296C321.451 220.648 322.307 220.824 323.219 220.824C323.987 220.824 324.667 220.704 325.259 220.464C325.867 220.224 326.347 219.88 326.699 219.432C327.051 218.984 327.227 218.464 327.227 217.872C327.227 217.136 327.027 216.544 326.627 216.096C326.227 215.632 325.699 215.256 325.043 214.968C324.387 214.664 323.659 214.392 322.859 214.152C322.203 213.96 321.579 213.744 320.987 213.504C320.395 213.248 319.867 212.944 319.403 212.592C318.939 212.224 318.579 211.776 318.323 211.248C318.067 210.72 317.939 210.08 317.939 209.328C317.939 208.48 318.163 207.728 318.611 207.072C319.059 206.416 319.691 205.904 320.507 205.536C321.339 205.152 322.299 204.96 323.387 204.96C324.331 204.96 325.235 205.12 326.099 205.44C326.979 205.76 327.675 206.232 328.187 206.856C328.427 207.112 328.547 207.344 328.547 207.552C328.547 207.712 328.467 207.872 328.307 208.032C328.147 208.192 327.971 208.272 327.779 208.272C327.619 208.272 327.483 208.216 327.371 208.104C327.099 207.768 326.755 207.472 326.339 207.216C325.923 206.944 325.459 206.736 324.947 206.592C324.451 206.448 323.931 206.376 323.387 206.376C322.635 206.376 321.955 206.496 321.347 206.736C320.755 206.96 320.283 207.288 319.931 207.72C319.595 208.152 319.427 208.672 319.427 209.28C319.427 209.952 319.619 210.504 320.003 210.936C320.387 211.368 320.891 211.728 321.515 212.016C322.139 212.288 322.803 212.544 323.507 212.784C324.195 212.976 324.851 213.2 325.475 213.456C326.115 213.696 326.675 214 327.155 214.368C327.651 214.736 328.035 215.2 328.307 215.76C328.595 216.32 328.739 217.024 328.739 217.872C328.739 218.688 328.507 219.424 328.043 220.08C327.579 220.736 326.939 221.256 326.123 221.64C325.323 222.024 324.379 222.224 323.291 222.24ZM364.608 222.24C363.392 222.256 362.336 222.064 361.44 221.664C360.544 221.264 359.688 220.664 358.872 219.864C358.792 219.8 358.72 219.72 358.656 219.624C358.608 219.528 358.584 219.416 358.584 219.288C358.584 219.096 358.656 218.92 358.8 218.76C358.96 218.6 359.136 218.52 359.328 218.52C359.52 218.52 359.696 218.6 359.856 218.76C360.48 219.432 361.184 219.944 361.968 220.296C362.768 220.648 363.624 220.824 364.536 220.824C365.304 220.824 365.984 220.704 366.576 220.464C367.184 220.224 367.664 219.88 368.016 219.432C368.368 218.984 368.544 218.464 368.544 217.872C368.544 217.136 368.344 216.544 367.944 216.096C367.544 215.632 367.016 215.256 366.36 214.968C365.704 214.664 364.976 214.392 364.176 214.152C363.52 213.96 362.896 213.744 362.304 213.504C361.712 213.248 361.184 212.944 360.72 212.592C360.256 212.224 359.896 211.776 359.64 211.248C359.384 210.72 359.256 210.08 359.256 209.328C359.256 208.48 359.48 207.728 359.928 207.072C360.376 206.416 361.008 205.904 361.824 205.536C362.656 205.152 363.616 204.96 364.704 204.96C365.648 204.96 366.552 205.12 367.416 205.44C368.296 205.76 368.992 206.232 369.504 206.856C369.744 207.112 369.864 207.344 369.864 207.552C369.864 207.712 369.784 207.872 369.624 208.032C369.464 208.192 369.288 208.272 369.096 208.272C368.936 208.272 368.8 208.216 368.688 208.104C368.416 207.768 368.072 207.472 367.656 207.216C367.24 206.944 366.776 206.736 366.264 206.592C365.768 206.448 365.248 206.376 364.704 206.376C363.952 206.376 363.272 206.496 362.664 206.736C362.072 206.96 361.6 207.288 361.248 207.72C360.912 208.152 360.744 208.672 360.744 209.28C360.744 209.952 360.936 210.504 361.32 210.936C361.704 211.368 362.208 211.728 362.832 212.016C363.456 212.288 364.12 212.544 364.824 212.784C365.512 212.976 366.168 213.2 366.792 213.456C367.432 213.696 367.992 214 368.472 214.368C368.968 214.736 369.352 215.2 369.624 215.76C369.912 216.32 370.056 217.024 370.056 217.872C370.056 218.688 369.824 219.424 369.36 220.08C368.896 220.736 368.256 221.256 367.44 221.64C366.64 222.024 365.696 222.224 364.608 222.24ZM447.959 206.448C448.151 206.576 448.263 206.744 448.295 206.952C448.327 207.144 448.279 207.336 448.151 207.528C448.039 207.672 447.895 207.752 447.719 207.768C447.543 207.784 447.375 207.752 447.215 207.672C446.607 207.272 445.951 206.96 445.247 206.736C444.559 206.512 443.815 206.4 443.015 206.4C442.039 206.4 441.127 206.576 440.279 206.928C439.447 207.264 438.719 207.76 438.095 208.416C437.471 209.056 436.983 209.816 436.631 210.696C436.295 211.576 436.127 212.544 436.127 213.6C436.127 214.688 436.303 215.68 436.655 216.576C437.007 217.456 437.495 218.216 438.119 218.856C438.759 219.496 439.495 219.984 440.327 220.32C441.159 220.656 442.055 220.824 443.015 220.824C443.799 220.824 444.535 220.712 445.223 220.488C445.927 220.264 446.583 219.96 447.191 219.576C447.351 219.48 447.519 219.448 447.695 219.48C447.887 219.496 448.039 219.584 448.151 219.744C448.295 219.92 448.343 220.112 448.295 220.32C448.263 220.512 448.159 220.664 447.983 220.776C447.583 221.032 447.111 221.272 446.567 221.496C446.023 221.72 445.447 221.896 444.839 222.024C444.231 222.168 443.623 222.24 443.015 222.24C441.863 222.24 440.783 222.032 439.775 221.616C438.767 221.2 437.871 220.616 437.087 219.864C436.303 219.096 435.687 218.184 435.239 217.128C434.807 216.072 434.591 214.896 434.591 213.6C434.591 212.352 434.807 211.208 435.239 210.168C435.671 209.112 436.271 208.2 437.039 207.432C437.807 206.664 438.703 206.064 439.727 205.632C440.751 205.2 441.847 204.984 443.015 204.984C443.927 204.984 444.807 205.112 445.655 205.368C446.503 205.624 447.271 205.984 447.959 206.448ZM480.031 222C479.791 222 479.591 221.928 479.431 221.784C479.287 221.64 479.215 221.472 479.215 221.28V205.92C479.215 205.728 479.287 205.56 479.431 205.416C479.575 205.272 479.743 205.2 479.935 205.2H486.415C487.327 205.2 488.143 205.4 488.863 205.8C489.583 206.184 490.143 206.72 490.543 207.408C490.959 208.096 491.167 208.872 491.167 209.736C491.167 210.44 491.039 211.088 490.783 211.68C490.527 212.272 490.167 212.776 489.703 213.192C489.239 213.592 488.719 213.888 488.143 214.08L487.303 213.816C487.895 213.864 488.447 214.056 488.959 214.392C489.471 214.712 489.879 215.16 490.183 215.736C490.503 216.296 490.671 216.976 490.687 217.776C490.703 218.464 490.735 219 490.783 219.384C490.847 219.768 490.935 220.056 491.047 220.248C491.159 220.44 491.303 220.592 491.479 220.704C491.639 220.8 491.743 220.936 491.791 221.112C491.855 221.288 491.839 221.456 491.743 221.616C491.679 221.744 491.583 221.84 491.455 221.904C491.343 221.952 491.223 221.976 491.095 221.976C490.967 221.976 490.839 221.944 490.711 221.88C490.487 221.752 490.255 221.552 490.015 221.28C489.791 221.008 489.599 220.608 489.439 220.08C489.295 219.552 489.223 218.816 489.223 217.872C489.223 217.248 489.119 216.736 488.911 216.336C488.719 215.936 488.463 215.632 488.143 215.424C487.839 215.2 487.495 215.048 487.111 214.968C486.743 214.872 486.391 214.824 486.055 214.824H480.463L480.727 214.488V221.28C480.727 221.472 480.663 221.64 480.535 221.784C480.407 221.928 480.239 222 480.031 222ZM480.463 213.504H486.487C487.031 213.456 487.543 213.28 488.023 212.976C488.503 212.656 488.887 212.224 489.175 211.68C489.479 211.136 489.631 210.504 489.631 209.784C489.631 208.872 489.319 208.12 488.695 207.528C488.087 206.92 487.287 206.616 486.295 206.616H480.559L480.727 206.28V213.84L480.463 213.504ZM523.853 205.2H532.661C532.853 205.2 533.021 205.272 533.165 205.416C533.309 205.544 533.381 205.712 533.381 205.92C533.381 206.128 533.309 206.296 533.165 206.424C533.021 206.552 532.853 206.616 532.661 206.616H524.405L524.645 206.208V212.952L524.381 212.64H531.581C531.773 212.64 531.941 212.712 532.085 212.856C532.229 213 532.301 213.168 532.301 213.36C532.301 213.568 532.229 213.736 532.085 213.864C531.941 213.992 531.773 214.056 531.581 214.056H524.429L524.645 213.816V220.728L524.525 220.584H532.661C532.853 220.584 533.021 220.656 533.165 220.8C533.309 220.944 533.381 221.112 533.381 221.304C533.381 221.512 533.309 221.68 533.165 221.808C533.021 221.936 532.853 222 532.661 222H523.853C523.661 222 523.493 221.928 523.349 221.784C523.205 221.64 523.133 221.472 523.133 221.28V205.92C523.133 205.728 523.205 205.56 523.349 205.416C523.493 205.272 523.661 205.2 523.853 205.2ZM570.229 207.048L564.397 221.544C564.333 221.704 564.245 221.824 564.133 221.904C564.021 221.984 563.893 222.024 563.749 222.024C563.525 222.024 563.357 221.968 563.245 221.856C563.133 221.728 563.069 221.576 563.053 221.4C563.037 221.32 563.045 221.224 563.077 221.112L569.413 205.608C569.493 205.432 569.589 205.312 569.701 205.248C569.829 205.168 569.973 205.128 570.133 205.128C570.293 205.128 570.429 205.176 570.541 205.272C570.669 205.352 570.765 205.464 570.829 205.608L577.141 221.04C577.173 221.136 577.189 221.232 577.189 221.328C577.189 221.552 577.117 221.728 576.973 221.856C576.829 221.968 576.661 222.024 576.469 222.024C576.309 222.024 576.165 221.984 576.037 221.904C575.925 221.808 575.837 221.688 575.773 221.544L569.797 206.952L570.229 207.048ZM565.789 217.152L566.389 215.736H573.829L574.117 217.152H565.789ZM611.789 222C611.565 222 611.381 221.928 611.237 221.784C611.109 221.64 611.045 221.472 611.045 221.28V205.992H612.533V221.28C612.533 221.472 612.461 221.64 612.317 221.784C612.173 221.928 611.997 222 611.789 222ZM606.077 206.568C605.885 206.568 605.717 206.504 605.573 206.376C605.429 206.248 605.357 206.08 605.357 205.872C605.357 205.68 605.429 205.52 605.573 205.392C605.717 205.264 605.885 205.2 606.077 205.2H617.501C617.693 205.2 617.861 205.264 618.005 205.392C618.149 205.52 618.221 205.688 618.221 205.896C618.221 206.104 618.149 206.272 618.005 206.4C617.861 206.512 617.693 206.568 617.501 206.568H606.077ZM650.634 221.256C650.618 221.464 650.53 221.64 650.37 221.784C650.226 221.928 650.058 222 649.866 222C649.642 222 649.458 221.928 649.314 221.784C649.186 221.64 649.122 221.464 649.122 221.256V205.944C649.122 205.736 649.194 205.56 649.338 205.416C649.482 205.272 649.666 205.2 649.89 205.2C650.082 205.2 650.25 205.272 650.394 205.416C650.554 205.56 650.634 205.736 650.634 205.944V221.256ZM697.938 213.6C697.938 214.864 697.738 216.024 697.338 217.08C696.954 218.12 696.402 219.032 695.682 219.816C694.962 220.584 694.106 221.184 693.114 221.616C692.138 222.032 691.066 222.24 689.898 222.24C688.73 222.24 687.65 222.032 686.658 221.616C685.682 221.184 684.834 220.584 684.114 219.816C683.394 219.032 682.834 218.12 682.434 217.08C682.05 216.024 681.858 214.864 681.858 213.6C681.858 212.336 682.05 211.184 682.434 210.144C682.834 209.088 683.394 208.176 684.114 207.408C684.834 206.624 685.682 206.024 686.658 205.608C687.65 205.176 688.73 204.96 689.898 204.96C691.066 204.96 692.138 205.176 693.114 205.608C694.106 206.024 694.962 206.624 695.682 207.408C696.402 208.176 696.954 209.088 697.338 210.144C697.738 211.184 697.938 212.336 697.938 213.6ZM696.402 213.6C696.402 212.176 696.122 210.928 695.562 209.856C695.018 208.768 694.258 207.92 693.282 207.312C692.306 206.704 691.178 206.4 689.898 206.4C688.634 206.4 687.506 206.704 686.514 207.312C685.538 207.92 684.77 208.768 684.21 209.856C683.666 210.928 683.394 212.176 683.394 213.6C683.394 215.024 683.666 216.28 684.21 217.368C684.77 218.44 685.538 219.28 686.514 219.888C687.506 220.496 688.634 220.8 689.898 220.8C691.178 220.8 692.306 220.496 693.282 219.888C694.258 219.28 695.018 218.44 695.562 217.368C696.122 216.28 696.402 215.024 696.402 213.6ZM741.465 205.2C741.673 205.2 741.833 205.264 741.945 205.392C742.073 205.52 742.137 205.68 742.137 205.872V221.232C742.137 221.472 742.057 221.664 741.897 221.808C741.753 221.936 741.585 222 741.393 222C741.297 222 741.193 221.984 741.081 221.952C740.969 221.904 740.881 221.84 740.817 221.76L730.113 207.336L730.521 207.12V221.352C730.521 221.528 730.457 221.68 730.329 221.808C730.201 221.936 730.041 222 729.849 222C729.641 222 729.473 221.936 729.345 221.808C729.233 221.68 729.177 221.528 729.177 221.352V205.92C729.177 205.68 729.249 205.504 729.393 205.392C729.537 205.264 729.697 205.2 729.873 205.2C729.969 205.2 730.073 205.224 730.185 205.272C730.297 205.304 730.385 205.368 730.449 205.464L741.033 219.72L740.793 220.152V205.872C740.793 205.68 740.857 205.52 740.985 205.392C741.129 205.264 741.289 205.2 741.465 205.2Z" fill="#FCFAFA"/>
</svg>
