<svg width="781" height="559" viewBox="0 0 781 559" fill="none" xmlns="http://www.w3.org/2000/svg">
<path d="M37.812 418.232C37.812 423.507 38.732 427.739 40.572 430.928C42.412 434.056 45.6933 435.62 50.416 435.62C55.2 435.62 58.512 434.056 60.352 430.928C62.192 427.739 63.112 423.507 63.112 418.232V384.468H95.128V421.544C95.128 429.885 93.38 437.123 89.884 443.256C86.388 449.328 81.2973 454.02 74.612 457.332C67.988 460.583 59.9227 462.208 50.416 462.208C40.9707 462.208 32.936 460.583 26.312 457.332C19.688 454.02 14.5973 449.328 11.04 443.256C7.544 437.123 5.796 429.885 5.796 421.544V384.468H37.812V418.232ZM153.092 382.26C158.551 382.26 163.856 383.333 169.008 385.48C174.16 387.627 178.392 391.061 181.704 395.784C185.078 400.507 186.764 406.671 186.764 414.276V460H154.104V419.52C154.104 414.92 153 411.393 150.792 408.94C148.584 406.425 145.64 405.168 141.96 405.168C139.568 405.168 137.33 405.781 135.244 407.008C133.159 408.235 131.472 409.952 130.184 412.16C128.958 414.368 128.344 416.944 128.344 419.888V460H95.7763V384.468H128.344V394.68C129.142 392.656 130.706 390.724 133.036 388.884C135.367 386.983 138.28 385.419 141.776 384.192C145.272 382.904 149.044 382.26 153.092 382.26ZM189.056 460V384.468H221.532V460H189.056ZM205.708 372.876C200.74 372.876 196.508 371.128 193.012 367.632C189.577 364.136 187.86 359.965 187.86 355.12C187.86 350.275 189.577 346.073 193.012 342.516C196.508 338.959 200.74 337.18 205.708 337.18C208.958 337.18 211.933 338.008 214.632 339.664C217.33 341.259 219.508 343.405 221.164 346.104C222.82 348.803 223.648 351.808 223.648 355.12C223.648 359.965 221.869 364.136 218.312 367.632C214.816 371.128 210.614 372.876 205.708 372.876ZM219.4 384.468H254.268L270 430.56L285.824 384.468H320.508L289.136 460H250.956L219.4 384.468ZM344.411 428.812C344.656 430.836 345.453 432.615 346.803 434.148C348.213 435.62 350.053 436.785 352.323 437.644C354.653 438.441 357.383 438.84 360.511 438.84C363.577 438.84 366.46 438.625 369.159 438.196C371.857 437.705 374.249 437.061 376.335 436.264C378.481 435.467 380.168 434.577 381.395 433.596L393.447 453.836C392.097 455.001 390.073 456.228 387.375 457.516C384.676 458.804 380.965 459.908 376.243 460.828C371.581 461.748 365.601 462.208 358.303 462.208C349.839 462.208 342.233 460.705 335.487 457.7C328.74 454.695 323.404 450.187 319.479 444.176C315.553 438.104 313.591 430.529 313.591 421.452C313.591 414.092 315.247 407.468 318.559 401.58C321.871 395.631 326.655 390.939 332.911 387.504C339.167 384.008 346.741 382.26 355.635 382.26C364.16 382.26 371.551 383.763 377.807 386.768C384.063 389.712 388.877 394.189 392.251 400.2C395.624 406.211 397.311 413.816 397.311 423.016C397.311 423.507 397.28 424.488 397.219 425.96C397.219 427.432 397.157 428.383 397.035 428.812H344.411ZM366.675 414.092C366.613 412.068 366.153 410.259 365.295 408.664C364.497 407.069 363.332 405.812 361.799 404.892C360.265 403.972 358.395 403.512 356.187 403.512C354.04 403.512 352.139 403.941 350.483 404.8C348.827 405.659 347.539 406.885 346.619 408.48C345.699 410.013 345.177 411.884 345.055 414.092H366.675ZM427.088 460H394.52V384.468H427.088V395.6H426.628C427.242 394.251 428.468 392.533 430.308 390.448C432.21 388.363 434.847 386.492 438.22 384.836C441.655 383.119 445.918 382.26 451.008 382.26C454.443 382.26 457.694 382.812 460.76 383.916C463.827 385.02 466.066 386.093 467.476 387.136L454.964 413.54C454.167 412.375 452.664 411.209 450.456 410.044C448.248 408.817 445.519 408.204 442.268 408.204C438.588 408.204 435.614 409.032 433.344 410.688C431.136 412.283 429.542 414.276 428.56 416.668C427.579 419.06 427.088 421.36 427.088 423.568V460ZM495.854 382.26C501.129 382.26 505.943 382.689 510.298 383.548C514.714 384.407 518.363 385.357 521.246 386.4C524.19 387.381 526.03 388.148 526.766 388.7L516.554 407.652C515.45 406.855 513.303 405.812 510.114 404.524C506.986 403.175 503.521 402.5 499.718 402.5C497.203 402.5 495.118 402.807 493.462 403.42C491.867 403.972 491.07 404.953 491.07 406.364C491.07 407.713 492.021 408.848 493.922 409.768C495.823 410.627 498.706 411.393 502.57 412.068C506.066 412.743 509.746 413.877 513.61 415.472C517.474 417.005 520.725 419.367 523.362 422.556C526.061 425.684 527.41 429.885 527.41 435.16C527.41 440.803 526.183 445.403 523.73 448.96C521.277 452.456 518.057 455.185 514.07 457.148C510.145 459.049 505.882 460.368 501.282 461.104C496.743 461.84 492.389 462.208 488.218 462.208C482.085 462.208 476.779 461.656 472.302 460.552C467.825 459.509 464.237 458.313 461.538 456.964C458.901 455.615 457.091 454.572 456.11 453.836L466.138 432.768C467.733 434.056 470.309 435.528 473.866 437.184C477.485 438.84 481.226 439.668 485.09 439.668C488.525 439.668 491.101 439.3 492.818 438.564C494.597 437.767 495.486 436.693 495.486 435.344C495.486 434.301 495.057 433.443 494.198 432.768C493.339 432.093 492.082 431.48 490.426 430.928C488.77 430.376 486.685 429.855 484.17 429.364C481.901 428.935 479.386 428.229 476.626 427.248C473.866 426.205 471.229 424.764 468.714 422.924C466.261 421.084 464.206 418.753 462.55 415.932C460.955 413.049 460.158 409.553 460.158 405.444C460.158 400.169 461.875 395.845 465.31 392.472C468.745 389.037 473.161 386.492 478.558 384.836C484.017 383.119 489.782 382.26 495.854 382.26ZM648.991 432.032L667.483 384.468H699.315L646.967 498.272H614.491L632.063 460L600.415 384.468H632.707L648.991 432.032ZM720.964 428.812C721.209 430.836 722.006 432.615 723.356 434.148C724.766 435.62 726.606 436.785 728.876 437.644C731.206 438.441 733.936 438.84 737.064 438.84C740.13 438.84 743.013 438.625 745.712 438.196C748.41 437.705 750.802 437.061 752.888 436.264C755.034 435.467 756.721 434.577 757.948 433.596L770 453.836C768.65 455.001 766.626 456.228 763.928 457.516C761.229 458.804 757.518 459.908 752.796 460.828C748.134 461.748 742.154 462.208 734.856 462.208C726.392 462.208 718.786 460.705 712.04 457.7C705.293 454.695 699.957 450.187 696.032 444.176C692.106 438.104 690.144 430.529 690.144 421.452C690.144 414.092 691.8 407.468 695.112 401.58C698.424 395.631 703.208 390.939 709.464 387.504C715.72 384.008 723.294 382.26 732.188 382.26C740.713 382.26 748.104 383.763 754.36 386.768C760.616 389.712 765.43 394.189 768.804 400.2C772.177 406.211 773.864 413.816 773.864 423.016C773.864 423.507 773.833 424.488 773.772 425.96C773.772 427.432 773.71 428.383 773.588 428.812H720.964ZM743.228 414.092C743.166 412.068 742.706 410.259 741.848 408.664C741.05 407.069 739.885 405.812 738.352 404.892C736.818 403.972 734.948 403.512 732.74 403.512C730.593 403.512 728.692 403.941 727.036 404.8C725.38 405.659 724.092 406.885 723.172 408.48C722.252 410.013 721.73 411.884 721.608 414.092H743.228Z" fill="#545454"/>
<path d="M554.997 428.812C555.243 430.836 556.04 432.615 557.389 434.148C558.8 435.62 560.64 436.785 562.909 437.644C565.24 438.441 567.969 438.84 571.097 438.84C574.164 438.84 577.047 438.625 579.745 438.196C582.444 437.705 584.836 437.061 586.921 436.264C589.068 435.467 590.755 434.577 591.981 433.596L604.033 453.836C602.684 455.001 600.66 456.228 597.961 457.516C595.263 458.804 591.552 459.908 586.829 460.828C582.168 461.748 576.188 462.208 568.889 462.208C560.425 462.208 552.82 460.705 546.073 457.7C539.327 454.695 533.991 450.187 530.065 444.176C526.14 438.104 524.177 430.529 524.177 421.452C524.177 414.092 525.833 407.468 529.145 401.58C532.457 395.631 537.241 390.939 543.497 387.504C549.753 384.008 557.328 382.26 566.221 382.26C574.747 382.26 582.137 383.763 588.393 386.768C594.649 389.712 599.464 394.189 602.837 400.2C606.211 406.211 607.897 413.816 607.897 423.016C607.897 423.507 607.867 424.488 607.805 425.96C607.805 427.432 607.744 428.383 607.621 428.812H554.997ZM577.261 414.092C577.2 412.068 576.74 410.259 575.881 408.664C575.084 407.069 573.919 405.812 572.385 404.892C570.852 403.972 568.981 403.512 566.773 403.512C564.627 403.512 562.725 403.941 561.069 404.8C559.413 405.659 558.125 406.885 557.205 408.48C556.285 410.013 555.764 411.884 555.641 414.092H577.261Z" fill="#E1341E"/>
<path d="M47.544 551.584C47.736 551.584 47.904 551.656 48.048 551.8C48.192 551.928 48.264 552.088 48.264 552.28C48.264 552.488 48.192 552.664 48.048 552.808C47.904 552.936 47.736 553 47.544 553H38.976C38.768 553 38.592 552.928 38.448 552.784C38.32 552.64 38.256 552.472 38.256 552.28V536.92C38.256 536.728 38.328 536.56 38.472 536.416C38.616 536.272 38.8 536.2 39.024 536.2C39.216 536.2 39.384 536.272 39.528 536.416C39.688 536.56 39.768 536.728 39.768 536.92V551.992L39.312 551.584H47.544ZM80.3814 552.256C80.3654 552.464 80.2774 552.64 80.1174 552.784C79.9734 552.928 79.8054 553 79.6134 553C79.3894 553 79.2054 552.928 79.0614 552.784C78.9334 552.64 78.8694 552.464 78.8694 552.256V536.944C78.8694 536.736 78.9414 536.56 79.0854 536.416C79.2294 536.272 79.4134 536.2 79.6374 536.2C79.8294 536.2 79.9974 536.272 80.1414 536.416C80.3014 536.56 80.3814 536.736 80.3814 536.944V552.256ZM113.429 536.2C113.541 536.2 113.653 536.224 113.765 536.272C113.893 536.32 113.997 536.4 114.077 536.512L120.701 546.448L120.053 546.424L126.701 536.512C126.877 536.272 127.093 536.168 127.349 536.2C127.541 536.2 127.701 536.272 127.829 536.416C127.973 536.544 128.045 536.712 128.045 536.92V552.28C128.045 552.472 127.973 552.64 127.829 552.784C127.685 552.928 127.509 553 127.301 553C127.077 553 126.893 552.928 126.749 552.784C126.605 552.64 126.533 552.472 126.533 552.28V538.384L126.965 538.432L120.893 547.624C120.845 547.72 120.773 547.8 120.677 547.864C120.581 547.912 120.469 547.928 120.341 547.912C120.229 547.928 120.117 547.912 120.005 547.864C119.909 547.8 119.829 547.72 119.765 547.624L113.669 538.336L114.125 538.024V552.28C114.125 552.472 114.053 552.64 113.909 552.784C113.781 552.928 113.613 553 113.405 553C113.197 553 113.029 552.928 112.901 552.784C112.773 552.64 112.709 552.472 112.709 552.28V536.92C112.709 536.728 112.773 536.56 112.901 536.416C113.045 536.272 113.221 536.2 113.429 536.2ZM161.913 552.256C161.897 552.464 161.809 552.64 161.649 552.784C161.505 552.928 161.337 553 161.145 553C160.921 553 160.737 552.928 160.593 552.784C160.465 552.64 160.401 552.464 160.401 552.256V536.944C160.401 536.736 160.473 536.56 160.617 536.416C160.761 536.272 160.945 536.2 161.169 536.2C161.361 536.2 161.529 536.272 161.673 536.416C161.833 536.56 161.913 536.736 161.913 536.944V552.256ZM199.233 553C199.009 553 198.825 552.928 198.681 552.784C198.553 552.64 198.489 552.472 198.489 552.28V536.992H199.977V552.28C199.977 552.472 199.905 552.64 199.761 552.784C199.617 552.928 199.441 553 199.233 553ZM193.521 537.568C193.329 537.568 193.161 537.504 193.017 537.376C192.873 537.248 192.801 537.08 192.801 536.872C192.801 536.68 192.873 536.52 193.017 536.392C193.161 536.264 193.329 536.2 193.521 536.2H204.945C205.137 536.2 205.305 536.264 205.449 536.392C205.593 536.52 205.665 536.688 205.665 536.896C205.665 537.104 205.593 537.272 205.449 537.4C205.305 537.512 205.137 537.568 204.945 537.568H193.521ZM245.853 551.584C246.045 551.584 246.213 551.656 246.357 551.8C246.501 551.928 246.573 552.088 246.573 552.28C246.573 552.488 246.501 552.664 246.357 552.808C246.213 552.936 246.045 553 245.853 553H237.285C237.077 553 236.901 552.928 236.757 552.784C236.629 552.64 236.565 552.472 236.565 552.28V536.92C236.565 536.728 236.637 536.56 236.781 536.416C236.925 536.272 237.109 536.2 237.333 536.2C237.525 536.2 237.693 536.272 237.837 536.416C237.997 536.56 238.077 536.728 238.077 536.92V551.992L237.621 551.584H245.853ZM277.899 536.2H286.707C286.899 536.2 287.067 536.272 287.211 536.416C287.355 536.544 287.427 536.712 287.427 536.92C287.427 537.128 287.355 537.296 287.211 537.424C287.067 537.552 286.899 537.616 286.707 537.616H278.451L278.691 537.208V543.952L278.427 543.64H285.627C285.819 543.64 285.987 543.712 286.131 543.856C286.275 544 286.347 544.168 286.347 544.36C286.347 544.568 286.275 544.736 286.131 544.864C285.987 544.992 285.819 545.056 285.627 545.056H278.475L278.691 544.816V551.728L278.571 551.584H286.707C286.899 551.584 287.067 551.656 287.211 551.8C287.355 551.944 287.427 552.112 287.427 552.304C287.427 552.512 287.355 552.68 287.211 552.808C287.067 552.936 286.899 553 286.707 553H277.899C277.707 553 277.539 552.928 277.395 552.784C277.251 552.64 277.179 552.472 277.179 552.28V536.92C277.179 536.728 277.251 536.56 277.395 536.416C277.539 536.272 277.707 536.2 277.899 536.2ZM323.291 553.24C322.075 553.256 321.019 553.064 320.123 552.664C319.227 552.264 318.371 551.664 317.555 550.864C317.475 550.8 317.403 550.72 317.339 550.624C317.291 550.528 317.267 550.416 317.267 550.288C317.267 550.096 317.339 549.92 317.483 549.76C317.643 549.6 317.819 549.52 318.011 549.52C318.203 549.52 318.379 549.6 318.539 549.76C319.163 550.432 319.867 550.944 320.651 551.296C321.451 551.648 322.307 551.824 323.219 551.824C323.987 551.824 324.667 551.704 325.259 551.464C325.867 551.224 326.347 550.88 326.699 550.432C327.051 549.984 327.227 549.464 327.227 548.872C327.227 548.136 327.027 547.544 326.627 547.096C326.227 546.632 325.699 546.256 325.043 545.968C324.387 545.664 323.659 545.392 322.859 545.152C322.203 544.96 321.579 544.744 320.987 544.504C320.395 544.248 319.867 543.944 319.403 543.592C318.939 543.224 318.579 542.776 318.323 542.248C318.067 541.72 317.939 541.08 317.939 540.328C317.939 539.48 318.163 538.728 318.611 538.072C319.059 537.416 319.691 536.904 320.507 536.536C321.339 536.152 322.299 535.96 323.387 535.96C324.331 535.96 325.235 536.12 326.099 536.44C326.979 536.76 327.675 537.232 328.187 537.856C328.427 538.112 328.547 538.344 328.547 538.552C328.547 538.712 328.467 538.872 328.307 539.032C328.147 539.192 327.971 539.272 327.779 539.272C327.619 539.272 327.483 539.216 327.371 539.104C327.099 538.768 326.755 538.472 326.339 538.216C325.923 537.944 325.459 537.736 324.947 537.592C324.451 537.448 323.931 537.376 323.387 537.376C322.635 537.376 321.955 537.496 321.347 537.736C320.755 537.96 320.283 538.288 319.931 538.72C319.595 539.152 319.427 539.672 319.427 540.28C319.427 540.952 319.619 541.504 320.003 541.936C320.387 542.368 320.891 542.728 321.515 543.016C322.139 543.288 322.803 543.544 323.507 543.784C324.195 543.976 324.851 544.2 325.475 544.456C326.115 544.696 326.675 545 327.155 545.368C327.651 545.736 328.035 546.2 328.307 546.76C328.595 547.32 328.739 548.024 328.739 548.872C328.739 549.688 328.507 550.424 328.043 551.08C327.579 551.736 326.939 552.256 326.123 552.64C325.323 553.024 324.379 553.224 323.291 553.24ZM364.608 553.24C363.392 553.256 362.336 553.064 361.44 552.664C360.544 552.264 359.688 551.664 358.872 550.864C358.792 550.8 358.72 550.72 358.656 550.624C358.608 550.528 358.584 550.416 358.584 550.288C358.584 550.096 358.656 549.92 358.8 549.76C358.96 549.6 359.136 549.52 359.328 549.52C359.52 549.52 359.696 549.6 359.856 549.76C360.48 550.432 361.184 550.944 361.968 551.296C362.768 551.648 363.624 551.824 364.536 551.824C365.304 551.824 365.984 551.704 366.576 551.464C367.184 551.224 367.664 550.88 368.016 550.432C368.368 549.984 368.544 549.464 368.544 548.872C368.544 548.136 368.344 547.544 367.944 547.096C367.544 546.632 367.016 546.256 366.36 545.968C365.704 545.664 364.976 545.392 364.176 545.152C363.52 544.96 362.896 544.744 362.304 544.504C361.712 544.248 361.184 543.944 360.72 543.592C360.256 543.224 359.896 542.776 359.64 542.248C359.384 541.72 359.256 541.08 359.256 540.328C359.256 539.48 359.48 538.728 359.928 538.072C360.376 537.416 361.008 536.904 361.824 536.536C362.656 536.152 363.616 535.96 364.704 535.96C365.648 535.96 366.552 536.12 367.416 536.44C368.296 536.76 368.992 537.232 369.504 537.856C369.744 538.112 369.864 538.344 369.864 538.552C369.864 538.712 369.784 538.872 369.624 539.032C369.464 539.192 369.288 539.272 369.096 539.272C368.936 539.272 368.8 539.216 368.688 539.104C368.416 538.768 368.072 538.472 367.656 538.216C367.24 537.944 366.776 537.736 366.264 537.592C365.768 537.448 365.248 537.376 364.704 537.376C363.952 537.376 363.272 537.496 362.664 537.736C362.072 537.96 361.6 538.288 361.248 538.72C360.912 539.152 360.744 539.672 360.744 540.28C360.744 540.952 360.936 541.504 361.32 541.936C361.704 542.368 362.208 542.728 362.832 543.016C363.456 543.288 364.12 543.544 364.824 543.784C365.512 543.976 366.168 544.2 366.792 544.456C367.432 544.696 367.992 545 368.472 545.368C368.968 545.736 369.352 546.2 369.624 546.76C369.912 547.32 370.056 548.024 370.056 548.872C370.056 549.688 369.824 550.424 369.36 551.08C368.896 551.736 368.256 552.256 367.44 552.64C366.64 553.024 365.696 553.224 364.608 553.24ZM447.959 537.448C448.151 537.576 448.263 537.744 448.295 537.952C448.327 538.144 448.279 538.336 448.151 538.528C448.039 538.672 447.895 538.752 447.719 538.768C447.543 538.784 447.375 538.752 447.215 538.672C446.607 538.272 445.951 537.96 445.247 537.736C444.559 537.512 443.815 537.4 443.015 537.4C442.039 537.4 441.127 537.576 440.279 537.928C439.447 538.264 438.719 538.76 438.095 539.416C437.471 540.056 436.983 540.816 436.631 541.696C436.295 542.576 436.127 543.544 436.127 544.6C436.127 545.688 436.303 546.68 436.655 547.576C437.007 548.456 437.495 549.216 438.119 549.856C438.759 550.496 439.495 550.984 440.327 551.32C441.159 551.656 442.055 551.824 443.015 551.824C443.799 551.824 444.535 551.712 445.223 551.488C445.927 551.264 446.583 550.96 447.191 550.576C447.351 550.48 447.519 550.448 447.695 550.48C447.887 550.496 448.039 550.584 448.151 550.744C448.295 550.92 448.343 551.112 448.295 551.32C448.263 551.512 448.159 551.664 447.983 551.776C447.583 552.032 447.111 552.272 446.567 552.496C446.023 552.72 445.447 552.896 444.839 553.024C444.231 553.168 443.623 553.24 443.015 553.24C441.863 553.24 440.783 553.032 439.775 552.616C438.767 552.2 437.871 551.616 437.087 550.864C436.303 550.096 435.687 549.184 435.239 548.128C434.807 547.072 434.591 545.896 434.591 544.6C434.591 543.352 434.807 542.208 435.239 541.168C435.671 540.112 436.271 539.2 437.039 538.432C437.807 537.664 438.703 537.064 439.727 536.632C440.751 536.2 441.847 535.984 443.015 535.984C443.927 535.984 444.807 536.112 445.655 536.368C446.503 536.624 447.271 536.984 447.959 537.448ZM480.031 553C479.791 553 479.591 552.928 479.431 552.784C479.287 552.64 479.215 552.472 479.215 552.28V536.92C479.215 536.728 479.287 536.56 479.431 536.416C479.575 536.272 479.743 536.2 479.935 536.2H486.415C487.327 536.2 488.143 536.4 488.863 536.8C489.583 537.184 490.143 537.72 490.543 538.408C490.959 539.096 491.167 539.872 491.167 540.736C491.167 541.44 491.039 542.088 490.783 542.68C490.527 543.272 490.167 543.776 489.703 544.192C489.239 544.592 488.719 544.888 488.143 545.08L487.303 544.816C487.895 544.864 488.447 545.056 488.959 545.392C489.471 545.712 489.879 546.16 490.183 546.736C490.503 547.296 490.671 547.976 490.687 548.776C490.703 549.464 490.735 550 490.783 550.384C490.847 550.768 490.935 551.056 491.047 551.248C491.159 551.44 491.303 551.592 491.479 551.704C491.639 551.8 491.743 551.936 491.791 552.112C491.855 552.288 491.839 552.456 491.743 552.616C491.679 552.744 491.583 552.84 491.455 552.904C491.343 552.952 491.223 552.976 491.095 552.976C490.967 552.976 490.839 552.944 490.711 552.88C490.487 552.752 490.255 552.552 490.015 552.28C489.791 552.008 489.599 551.608 489.439 551.08C489.295 550.552 489.223 549.816 489.223 548.872C489.223 548.248 489.119 547.736 488.911 547.336C488.719 546.936 488.463 546.632 488.143 546.424C487.839 546.2 487.495 546.048 487.111 545.968C486.743 545.872 486.391 545.824 486.055 545.824H480.463L480.727 545.488V552.28C480.727 552.472 480.663 552.64 480.535 552.784C480.407 552.928 480.239 553 480.031 553ZM480.463 544.504H486.487C487.031 544.456 487.543 544.28 488.023 543.976C488.503 543.656 488.887 543.224 489.175 542.68C489.479 542.136 489.631 541.504 489.631 540.784C489.631 539.872 489.319 539.12 488.695 538.528C488.087 537.92 487.287 537.616 486.295 537.616H480.559L480.727 537.28V544.84L480.463 544.504ZM523.853 536.2H532.661C532.853 536.2 533.021 536.272 533.165 536.416C533.309 536.544 533.381 536.712 533.381 536.92C533.381 537.128 533.309 537.296 533.165 537.424C533.021 537.552 532.853 537.616 532.661 537.616H524.405L524.645 537.208V543.952L524.381 543.64H531.581C531.773 543.64 531.941 543.712 532.085 543.856C532.229 544 532.301 544.168 532.301 544.36C532.301 544.568 532.229 544.736 532.085 544.864C531.941 544.992 531.773 545.056 531.581 545.056H524.429L524.645 544.816V551.728L524.525 551.584H532.661C532.853 551.584 533.021 551.656 533.165 551.8C533.309 551.944 533.381 552.112 533.381 552.304C533.381 552.512 533.309 552.68 533.165 552.808C533.021 552.936 532.853 553 532.661 553H523.853C523.661 553 523.493 552.928 523.349 552.784C523.205 552.64 523.133 552.472 523.133 552.28V536.92C523.133 536.728 523.205 536.56 523.349 536.416C523.493 536.272 523.661 536.2 523.853 536.2ZM570.229 538.048L564.397 552.544C564.333 552.704 564.245 552.824 564.133 552.904C564.021 552.984 563.893 553.024 563.749 553.024C563.525 553.024 563.357 552.968 563.245 552.856C563.133 552.728 563.069 552.576 563.053 552.4C563.037 552.32 563.045 552.224 563.077 552.112L569.413 536.608C569.493 536.432 569.589 536.312 569.701 536.248C569.829 536.168 569.973 536.128 570.133 536.128C570.293 536.128 570.429 536.176 570.541 536.272C570.669 536.352 570.765 536.464 570.829 536.608L577.141 552.04C577.173 552.136 577.189 552.232 577.189 552.328C577.189 552.552 577.117 552.728 576.973 552.856C576.829 552.968 576.661 553.024 576.469 553.024C576.309 553.024 576.165 552.984 576.037 552.904C575.925 552.808 575.837 552.688 575.773 552.544L569.797 537.952L570.229 538.048ZM565.789 548.152L566.389 546.736H573.829L574.117 548.152H565.789ZM611.789 553C611.565 553 611.381 552.928 611.237 552.784C611.109 552.64 611.045 552.472 611.045 552.28V536.992H612.533V552.28C612.533 552.472 612.461 552.64 612.317 552.784C612.173 552.928 611.997 553 611.789 553ZM606.077 537.568C605.885 537.568 605.717 537.504 605.573 537.376C605.429 537.248 605.357 537.08 605.357 536.872C605.357 536.68 605.429 536.52 605.573 536.392C605.717 536.264 605.885 536.2 606.077 536.2H617.501C617.693 536.2 617.861 536.264 618.005 536.392C618.149 536.52 618.221 536.688 618.221 536.896C618.221 537.104 618.149 537.272 618.005 537.4C617.861 537.512 617.693 537.568 617.501 537.568H606.077ZM650.634 552.256C650.618 552.464 650.53 552.64 650.37 552.784C650.226 552.928 650.058 553 649.866 553C649.642 553 649.458 552.928 649.314 552.784C649.186 552.64 649.122 552.464 649.122 552.256V536.944C649.122 536.736 649.194 536.56 649.338 536.416C649.482 536.272 649.666 536.2 649.89 536.2C650.082 536.2 650.25 536.272 650.394 536.416C650.554 536.56 650.634 536.736 650.634 536.944V552.256ZM697.938 544.6C697.938 545.864 697.738 547.024 697.338 548.08C696.954 549.12 696.402 550.032 695.682 550.816C694.962 551.584 694.106 552.184 693.114 552.616C692.138 553.032 691.066 553.24 689.898 553.24C688.73 553.24 687.65 553.032 686.658 552.616C685.682 552.184 684.834 551.584 684.114 550.816C683.394 550.032 682.834 549.12 682.434 548.08C682.05 547.024 681.858 545.864 681.858 544.6C681.858 543.336 682.05 542.184 682.434 541.144C682.834 540.088 683.394 539.176 684.114 538.408C684.834 537.624 685.682 537.024 686.658 536.608C687.65 536.176 688.73 535.96 689.898 535.96C691.066 535.96 692.138 536.176 693.114 536.608C694.106 537.024 694.962 537.624 695.682 538.408C696.402 539.176 696.954 540.088 697.338 541.144C697.738 542.184 697.938 543.336 697.938 544.6ZM696.402 544.6C696.402 543.176 696.122 541.928 695.562 540.856C695.018 539.768 694.258 538.92 693.282 538.312C692.306 537.704 691.178 537.4 689.898 537.4C688.634 537.4 687.506 537.704 686.514 538.312C685.538 538.92 684.77 539.768 684.21 540.856C683.666 541.928 683.394 543.176 683.394 544.6C683.394 546.024 683.666 547.28 684.21 548.368C684.77 549.44 685.538 550.28 686.514 550.888C687.506 551.496 688.634 551.8 689.898 551.8C691.178 551.8 692.306 551.496 693.282 550.888C694.258 550.28 695.018 549.44 695.562 548.368C696.122 547.28 696.402 546.024 696.402 544.6ZM741.465 536.2C741.673 536.2 741.833 536.264 741.945 536.392C742.073 536.52 742.137 536.68 742.137 536.872V552.232C742.137 552.472 742.057 552.664 741.897 552.808C741.753 552.936 741.585 553 741.393 553C741.297 553 741.193 552.984 741.081 552.952C740.969 552.904 740.881 552.84 740.817 552.76L730.113 538.336L730.521 538.12V552.352C730.521 552.528 730.457 552.68 730.329 552.808C730.201 552.936 730.041 553 729.849 553C729.641 553 729.473 552.936 729.345 552.808C729.233 552.68 729.177 552.528 729.177 552.352V536.92C729.177 536.68 729.249 536.504 729.393 536.392C729.537 536.264 729.697 536.2 729.873 536.2C729.969 536.2 730.073 536.224 730.185 536.272C730.297 536.304 730.385 536.368 730.449 536.464L741.033 550.72L740.793 551.152V536.872C740.793 536.68 740.857 536.52 740.985 536.392C741.129 536.264 741.289 536.2 741.465 536.2Z" fill="#FCFAFA"/>
<path d="M385.4 0.366093C366.533 1.65151 348.04 9.364 331.371 22.923C327.1 26.4061 318.434 35.0723 314.785 39.509C295.338 63.1441 283.396 93.2062 280.162 126.627C279.084 137.864 279.291 157.145 280.618 165.48C280.867 167.014 281.613 167.304 281.613 165.853C281.613 164.36 284.972 152.957 287.128 147.152C303.05 104.36 336.471 75.4592 384.031 63.3929C406.132 57.7951 431.965 56.2609 457.217 59.0391C468.744 60.3245 484.46 63.3514 496.816 66.7101C508.468 69.8614 525.344 76.0812 535.296 80.8082C538.157 82.1765 540.603 83.2131 540.686 83.0887C540.935 82.84 536.54 76.2056 532.6 70.981C516.429 49.3362 494.37 30.8843 470.279 18.818C453.071 10.1933 433.375 4.18087 413.886 1.61004C408.662 0.946603 392.076 -0.214416 390.458 0.0343734C390.251 0.0343734 387.971 0.200233 385.4 0.366093Z" fill="#545454"/>
<path d="M291.689 30.5526C253.458 56.8828 227.418 95.4867 217.798 140.186C214.688 154.616 213.237 173.731 214.398 185.01C216.181 201.969 222.691 218.14 233.721 232.777C253.583 259.149 285.303 277.891 322.58 285.231C335.144 287.718 341.364 288.257 356.457 288.299C368.814 288.299 379.221 287.76 380.383 287.055C380.631 286.889 378.392 286.184 375.448 285.396C362.055 281.955 349.076 276.523 337.425 269.557C321.668 260.103 305.497 244.056 295.504 228.009C284.64 210.469 277.052 189.032 273.735 166.516C272.076 155.03 271.869 152.128 271.869 136.164C271.869 119.702 272.117 115.888 273.983 102.909C277.342 79.1495 284.889 53.6486 294.716 32.7502C296.955 27.9817 297.204 27.3183 296.665 27.3183C296.457 27.3598 294.26 28.811 291.689 30.5526Z" fill="#545454"/>
<path d="M418.033 65.7564C411.15 66.0466 402.027 66.793 401.737 67.0833C401.53 67.2906 403.147 67.8711 405.262 68.3687C419.733 71.9347 436.319 79.1081 448.095 86.945C456.72 92.6672 461.986 97.0625 469.242 104.485C492.628 128.493 505.814 159.716 509.753 200.435C510.5 208.52 510.375 229.543 509.505 238.375C506.602 267.857 499.304 295.058 487.279 321.305C485.911 324.332 484.833 326.861 484.916 326.944C485.123 327.193 494.038 321.056 498.765 317.449C516.471 303.848 532.02 286.35 543.423 267.193C559.014 241.029 567.804 209.681 567.846 180.117C567.887 171.16 567.473 166.516 565.98 159.633C559.345 128.493 535.669 100.504 501.336 83.2546C476.457 70.7737 446.644 64.5124 418.033 65.7564Z" fill="#545454"/>
<path d="M346.92 131.147C326.602 140.062 309.187 154.989 297.577 173.482L295.338 177.048L297.287 180.241C300.562 185.673 306.451 193.137 311.634 198.486C320.092 207.152 328.634 213.703 338.461 218.97C343.562 221.706 351.108 225.106 352.062 225.106C352.352 225.106 351.399 224.111 349.989 222.867C343.023 216.772 336.513 207.193 333.237 198.154C330.956 191.81 330.086 186.876 329.837 179.205C329.671 174.643 329.795 170.87 330.127 168.631C332.117 154.948 338.337 142.84 348.496 132.93C350.735 130.732 352.477 128.908 352.269 128.908C352.062 128.949 349.657 129.944 346.92 131.147Z" fill="#545454"/>
<path d="M433.831 133.178C442.912 142.176 448.551 152.418 451.246 164.982C452.034 168.631 452.2 170.663 452.2 177.214C452.241 184.015 452.117 185.673 451.288 189.405C448.51 201.803 443.202 211.547 434.37 220.421C431.841 222.992 429.892 225.106 430.016 225.106C430.763 225.106 436.111 222.701 441.46 220.006C447.639 216.896 455.351 211.92 460.617 207.65C464.805 204.291 473.513 195.542 476.913 191.354C480.106 187.373 486.45 177.961 486.45 177.173C486.45 175.182 476.872 162.536 470.113 155.528C464.017 149.225 458.71 144.83 451.412 139.979C446.561 136.744 435.282 130.856 431.426 129.571L429.519 128.908L433.831 133.178Z" fill="#545454"/>
<path d="M383.285 135.708C378.641 136.62 378.641 136.579 381.502 138.486C384.736 140.642 387.017 143.296 388.8 146.986C394.646 159.011 388.136 172.985 375.075 176.385C366.575 178.583 356.996 174.768 352.269 167.304C351.606 166.268 350.942 165.397 350.818 165.397C350.403 165.397 349.574 169.668 349.201 173.648C348.123 185.715 352.269 197.408 360.77 206.198C364.501 210.013 367.694 212.377 372.214 214.616C378.848 217.933 383.824 219.052 391.495 219.011C396.056 218.97 397.839 218.762 401.115 217.933C416.042 214.035 427.113 203.296 431.509 188.41C432.877 183.807 433.375 175.887 432.545 170.87C430.265 156.689 421.682 145.162 408.869 139.066C402.691 136.164 399.747 135.501 392.532 135.293C388.344 135.21 385.317 135.335 383.285 135.708Z" fill="#545454"/>
<path d="M500.548 187.912C500.548 189.115 497.148 200.725 495.406 205.576C487.611 226.848 475.918 244.553 460.327 258.486C450.624 267.193 441.834 273.081 429.85 279.011C414.798 286.433 400.534 290.911 382.248 293.938C365.04 296.799 342.981 297.172 323.285 294.933C297.121 291.989 270.044 284.277 245.165 272.75C243.258 271.837 241.599 271.215 241.475 271.34C241.185 271.63 246.202 279.135 250.224 284.401C266.603 305.88 288.081 323.627 312.256 335.61C337.508 348.133 367.528 354.933 393.154 353.897C403.271 353.523 409.491 352.362 419.277 349.004C433.333 344.194 447.348 335.154 459.29 323.171C491.218 291.16 506.934 241.568 501.502 189.778C501.377 188.451 501.087 187.373 500.921 187.373C500.714 187.373 500.548 187.622 500.548 187.912Z" fill="#545454"/>
</svg>
