<svg width="769" height="162" viewBox="0 0 769 162" fill="none" xmlns="http://www.w3.org/2000/svg">
<path d="M32.812 81.232C32.812 86.5067 33.732 90.7387 35.572 93.928C37.412 97.056 40.6933 98.62 45.416 98.62C50.2 98.62 53.512 97.056 55.352 93.928C57.192 90.7387 58.112 86.5067 58.112 81.232V47.468H90.128V84.544C90.128 92.8853 88.38 100.123 84.884 106.256C81.388 112.328 76.2973 117.02 69.612 120.332C62.988 123.583 54.9227 125.208 45.416 125.208C35.9707 125.208 27.936 123.583 21.312 120.332C14.688 117.02 9.59733 112.328 6.04 106.256C2.544 100.123 0.796 92.8853 0.796 84.544V47.468H32.812V81.232ZM148.092 45.26C153.551 45.26 158.856 46.3333 164.008 48.48C169.16 50.6267 173.392 54.0613 176.704 58.784C180.078 63.5067 181.764 69.6707 181.764 77.276V123H149.104V82.52C149.104 77.92 148 74.3933 145.792 71.94C143.584 69.4253 140.64 68.168 136.96 68.168C134.568 68.168 132.33 68.7813 130.244 70.008C128.159 71.2347 126.472 72.952 125.184 75.16C123.958 77.368 123.344 79.944 123.344 82.888V123H90.7763V47.468H123.344V57.68C124.142 55.656 125.706 53.724 128.036 51.884C130.367 49.9827 133.28 48.4187 136.776 47.192C140.272 45.904 144.044 45.26 148.092 45.26ZM184.056 123V47.468H216.532V123H184.056ZM200.708 35.876C195.74 35.876 191.508 34.128 188.012 30.632C184.577 27.136 182.86 22.9653 182.86 18.12C182.86 13.2747 184.577 9.07332 188.012 5.51599C191.508 1.95866 195.74 0.179996 200.708 0.179996C203.958 0.179996 206.933 1.00799 209.632 2.66399C212.33 4.25866 214.508 6.40533 216.164 9.104C217.82 11.8027 218.648 14.808 218.648 18.12C218.648 22.9653 216.869 27.136 213.312 30.632C209.816 34.128 205.614 35.876 200.708 35.876ZM214.4 47.468H249.268L265 93.56L280.824 47.468H315.508L284.136 123H245.956L214.4 47.468ZM339.411 91.812C339.656 93.836 340.453 95.6147 341.803 97.148C343.213 98.62 345.053 99.7853 347.323 100.644C349.653 101.441 352.383 101.84 355.511 101.84C358.577 101.84 361.46 101.625 364.159 101.196C366.857 100.705 369.249 100.061 371.335 99.264C373.481 98.4667 375.168 97.5773 376.395 96.596L388.447 116.836C387.097 118.001 385.073 119.228 382.375 120.516C379.676 121.804 375.965 122.908 371.243 123.828C366.581 124.748 360.601 125.208 353.303 125.208C344.839 125.208 337.233 123.705 330.487 120.7C323.74 117.695 318.404 113.187 314.479 107.176C310.553 101.104 308.591 93.5293 308.591 84.452C308.591 77.092 310.247 70.468 313.559 64.58C316.871 58.6307 321.655 53.9387 327.911 50.504C334.167 47.008 341.741 45.26 350.635 45.26C359.16 45.26 366.551 46.7627 372.807 49.768C379.063 52.712 383.877 57.1893 387.251 63.2C390.624 69.2107 392.311 76.816 392.311 86.016C392.311 86.5067 392.28 87.488 392.219 88.96C392.219 90.432 392.157 91.3827 392.035 91.812H339.411ZM361.675 77.092C361.613 75.068 361.153 73.2587 360.295 71.664C359.497 70.0693 358.332 68.812 356.799 67.892C355.265 66.972 353.395 66.512 351.187 66.512C349.04 66.512 347.139 66.9413 345.483 67.8C343.827 68.6587 342.539 69.8853 341.619 71.48C340.699 73.0133 340.177 74.884 340.055 77.092H361.675ZM422.088 123H389.52V47.468H422.088V58.6H421.628C422.242 57.2507 423.468 55.5333 425.308 53.448C427.21 51.3627 429.847 49.492 433.22 47.836C436.655 46.1187 440.918 45.26 446.008 45.26C449.443 45.26 452.694 45.812 455.76 46.916C458.827 48.02 461.066 49.0933 462.476 50.136L449.964 76.54C449.167 75.3747 447.664 74.2093 445.456 73.044C443.248 71.8173 440.519 71.204 437.268 71.204C433.588 71.204 430.614 72.032 428.344 73.688C426.136 75.2827 424.542 77.276 423.56 79.668C422.579 82.06 422.088 84.36 422.088 86.568V123ZM490.854 45.26C496.129 45.26 500.943 45.6893 505.298 46.548C509.714 47.4067 513.363 48.3573 516.246 49.4C519.19 50.3813 521.03 51.148 521.766 51.7L511.554 70.652C510.45 69.8547 508.303 68.812 505.114 67.524C501.986 66.1747 498.521 65.5 494.718 65.5C492.203 65.5 490.118 65.8067 488.462 66.42C486.867 66.972 486.07 67.9533 486.07 69.364C486.07 70.7133 487.021 71.848 488.922 72.768C490.823 73.6267 493.706 74.3933 497.57 75.068C501.066 75.7427 504.746 76.8773 508.61 78.472C512.474 80.0053 515.725 82.3667 518.362 85.556C521.061 88.684 522.41 92.8853 522.41 98.16C522.41 103.803 521.183 108.403 518.73 111.96C516.277 115.456 513.057 118.185 509.07 120.148C505.145 122.049 500.882 123.368 496.282 124.104C491.743 124.84 487.389 125.208 483.218 125.208C477.085 125.208 471.779 124.656 467.302 123.552C462.825 122.509 459.237 121.313 456.538 119.964C453.901 118.615 452.091 117.572 451.11 116.836L461.138 95.768C462.733 97.056 465.309 98.528 468.866 100.184C472.485 101.84 476.226 102.668 480.09 102.668C483.525 102.668 486.101 102.3 487.818 101.564C489.597 100.767 490.486 99.6933 490.486 98.344C490.486 97.3013 490.057 96.4427 489.198 95.768C488.339 95.0933 487.082 94.48 485.426 93.928C483.77 93.376 481.685 92.8547 479.17 92.364C476.901 91.9347 474.386 91.2293 471.626 90.248C468.866 89.2053 466.229 87.764 463.714 85.924C461.261 84.084 459.206 81.7533 457.55 78.932C455.955 76.0493 455.158 72.5533 455.158 68.444C455.158 63.1693 456.875 58.8453 460.31 55.472C463.745 52.0373 468.161 49.492 473.558 47.836C479.017 46.1187 484.782 45.26 490.854 45.26ZM643.991 95.032L662.483 47.468H694.315L641.967 161.272H609.491L627.063 123L595.415 47.468H627.707L643.991 95.032ZM715.964 91.812C716.209 93.836 717.006 95.6147 718.356 97.148C719.766 98.62 721.606 99.7853 723.876 100.644C726.206 101.441 728.936 101.84 732.064 101.84C735.13 101.84 738.013 101.625 740.712 101.196C743.41 100.705 745.802 100.061 747.888 99.264C750.034 98.4667 751.721 97.5773 752.948 96.596L765 116.836C763.65 118.001 761.626 119.228 758.928 120.516C756.229 121.804 752.518 122.908 747.796 123.828C743.134 124.748 737.154 125.208 729.856 125.208C721.392 125.208 713.786 123.705 707.04 120.7C700.293 117.695 694.957 113.187 691.032 107.176C687.106 101.104 685.144 93.5293 685.144 84.452C685.144 77.092 686.8 70.468 690.112 64.58C693.424 58.6307 698.208 53.9387 704.464 50.504C710.72 47.008 718.294 45.26 727.188 45.26C735.713 45.26 743.104 46.7627 749.36 49.768C755.616 52.712 760.43 57.1893 763.804 63.2C767.177 69.2107 768.864 76.816 768.864 86.016C768.864 86.5067 768.833 87.488 768.772 88.96C768.772 90.432 768.71 91.3827 768.588 91.812H715.964ZM738.228 77.092C738.166 75.068 737.706 73.2587 736.848 71.664C736.05 70.0693 734.885 68.812 733.352 67.892C731.818 66.972 729.948 66.512 727.74 66.512C725.593 66.512 723.692 66.9413 722.036 67.8C720.38 68.6587 719.092 69.8853 718.172 71.48C717.252 73.0133 716.73 74.884 716.608 77.092H738.228Z" fill="#030301"/>
<path d="M549.997 91.812C550.243 93.836 551.04 95.6147 552.389 97.148C553.8 98.62 555.64 99.7853 557.909 100.644C560.24 101.441 562.969 101.84 566.097 101.84C569.164 101.84 572.047 101.625 574.745 101.196C577.444 100.705 579.836 100.061 581.921 99.264C584.068 98.4667 585.755 97.5773 586.981 96.596L599.033 116.836C597.684 118.001 595.66 119.228 592.961 120.516C590.263 121.804 586.552 122.908 581.829 123.828C577.168 124.748 571.188 125.208 563.889 125.208C555.425 125.208 547.82 123.705 541.073 120.7C534.327 117.695 528.991 113.187 525.065 107.176C521.14 101.104 519.177 93.5293 519.177 84.452C519.177 77.092 520.833 70.468 524.145 64.58C527.457 58.6307 532.241 53.9387 538.497 50.504C544.753 47.008 552.328 45.26 561.221 45.26C569.747 45.26 577.137 46.7627 583.393 49.768C589.649 52.712 594.464 57.1893 597.837 63.2C601.211 69.2107 602.897 76.816 602.897 86.016C602.897 86.5067 602.867 87.488 602.805 88.96C602.805 90.432 602.744 91.3827 602.621 91.812H549.997ZM572.261 77.092C572.2 75.068 571.74 73.2587 570.881 71.664C570.084 70.0693 568.919 68.812 567.385 67.892C565.852 66.972 563.981 66.512 561.773 66.512C559.627 66.512 557.725 66.9413 556.069 67.8C554.413 68.6587 553.125 69.8853 552.205 71.48C551.285 73.0133 550.764 74.884 550.641 77.092H572.261Z" fill="#E1341E"/>
</svg>
