<svg width="781" height="582" viewBox="0 0 781 582" fill="none" xmlns="http://www.w3.org/2000/svg">
<path d="M37.812 441.232C37.812 446.507 38.732 450.739 40.572 453.928C42.412 457.056 45.6933 458.62 50.416 458.62C55.2 458.62 58.512 457.056 60.352 453.928C62.192 450.739 63.112 446.507 63.112 441.232V407.468H95.128V444.544C95.128 452.885 93.38 460.123 89.884 466.256C86.388 472.328 81.2973 477.02 74.612 480.332C67.988 483.583 59.9227 485.208 50.416 485.208C40.9707 485.208 32.936 483.583 26.312 480.332C19.688 477.02 14.5973 472.328 11.04 466.256C7.544 460.123 5.796 452.885 5.796 444.544V407.468H37.812V441.232ZM153.092 405.26C158.551 405.26 163.856 406.333 169.008 408.48C174.16 410.627 178.392 414.061 181.704 418.784C185.078 423.507 186.764 429.671 186.764 437.276V483H154.104V442.52C154.104 437.92 153 434.393 150.792 431.94C148.584 429.425 145.64 428.168 141.96 428.168C139.568 428.168 137.33 428.781 135.244 430.008C133.159 431.235 131.472 432.952 130.184 435.16C128.958 437.368 128.344 439.944 128.344 442.888V483H95.7763V407.468H128.344V417.68C129.142 415.656 130.706 413.724 133.036 411.884C135.367 409.983 138.28 408.419 141.776 407.192C145.272 405.904 149.044 405.26 153.092 405.26ZM189.056 483V407.468H221.532V483H189.056ZM205.708 395.876C200.74 395.876 196.508 394.128 193.012 390.632C189.577 387.136 187.86 382.965 187.86 378.12C187.86 373.275 189.577 369.073 193.012 365.516C196.508 361.959 200.74 360.18 205.708 360.18C208.958 360.18 211.933 361.008 214.632 362.664C217.33 364.259 219.508 366.405 221.164 369.104C222.82 371.803 223.648 374.808 223.648 378.12C223.648 382.965 221.869 387.136 218.312 390.632C214.816 394.128 210.614 395.876 205.708 395.876ZM219.4 407.468H254.268L270 453.56L285.824 407.468H320.508L289.136 483H250.956L219.4 407.468ZM344.411 451.812C344.656 453.836 345.453 455.615 346.803 457.148C348.213 458.62 350.053 459.785 352.323 460.644C354.653 461.441 357.383 461.84 360.511 461.84C363.577 461.84 366.46 461.625 369.159 461.196C371.857 460.705 374.249 460.061 376.335 459.264C378.481 458.467 380.168 457.577 381.395 456.596L393.447 476.836C392.097 478.001 390.073 479.228 387.375 480.516C384.676 481.804 380.965 482.908 376.243 483.828C371.581 484.748 365.601 485.208 358.303 485.208C349.839 485.208 342.233 483.705 335.487 480.7C328.74 477.695 323.404 473.187 319.479 467.176C315.553 461.104 313.591 453.529 313.591 444.452C313.591 437.092 315.247 430.468 318.559 424.58C321.871 418.631 326.655 413.939 332.911 410.504C339.167 407.008 346.741 405.26 355.635 405.26C364.16 405.26 371.551 406.763 377.807 409.768C384.063 412.712 388.877 417.189 392.251 423.2C395.624 429.211 397.311 436.816 397.311 446.016C397.311 446.507 397.28 447.488 397.219 448.96C397.219 450.432 397.157 451.383 397.035 451.812H344.411ZM366.675 437.092C366.613 435.068 366.153 433.259 365.295 431.664C364.497 430.069 363.332 428.812 361.799 427.892C360.265 426.972 358.395 426.512 356.187 426.512C354.04 426.512 352.139 426.941 350.483 427.8C348.827 428.659 347.539 429.885 346.619 431.48C345.699 433.013 345.177 434.884 345.055 437.092H366.675ZM427.088 483H394.52V407.468H427.088V418.6H426.628C427.242 417.251 428.468 415.533 430.308 413.448C432.21 411.363 434.847 409.492 438.22 407.836C441.655 406.119 445.918 405.26 451.008 405.26C454.443 405.26 457.694 405.812 460.76 406.916C463.827 408.02 466.066 409.093 467.476 410.136L454.964 436.54C454.167 435.375 452.664 434.209 450.456 433.044C448.248 431.817 445.519 431.204 442.268 431.204C438.588 431.204 435.614 432.032 433.344 433.688C431.136 435.283 429.542 437.276 428.56 439.668C427.579 442.06 427.088 444.36 427.088 446.568V483ZM495.854 405.26C501.129 405.26 505.943 405.689 510.298 406.548C514.714 407.407 518.363 408.357 521.246 409.4C524.19 410.381 526.03 411.148 526.766 411.7L516.554 430.652C515.45 429.855 513.303 428.812 510.114 427.524C506.986 426.175 503.521 425.5 499.718 425.5C497.203 425.5 495.118 425.807 493.462 426.42C491.867 426.972 491.07 427.953 491.07 429.364C491.07 430.713 492.021 431.848 493.922 432.768C495.823 433.627 498.706 434.393 502.57 435.068C506.066 435.743 509.746 436.877 513.61 438.472C517.474 440.005 520.725 442.367 523.362 445.556C526.061 448.684 527.41 452.885 527.41 458.16C527.41 463.803 526.183 468.403 523.73 471.96C521.277 475.456 518.057 478.185 514.07 480.148C510.145 482.049 505.882 483.368 501.282 484.104C496.743 484.84 492.389 485.208 488.218 485.208C482.085 485.208 476.779 484.656 472.302 483.552C467.825 482.509 464.237 481.313 461.538 479.964C458.901 478.615 457.091 477.572 456.11 476.836L466.138 455.768C467.733 457.056 470.309 458.528 473.866 460.184C477.485 461.84 481.226 462.668 485.09 462.668C488.525 462.668 491.101 462.3 492.818 461.564C494.597 460.767 495.486 459.693 495.486 458.344C495.486 457.301 495.057 456.443 494.198 455.768C493.339 455.093 492.082 454.48 490.426 453.928C488.77 453.376 486.685 452.855 484.17 452.364C481.901 451.935 479.386 451.229 476.626 450.248C473.866 449.205 471.229 447.764 468.714 445.924C466.261 444.084 464.206 441.753 462.55 438.932C460.955 436.049 460.158 432.553 460.158 428.444C460.158 423.169 461.875 418.845 465.31 415.472C468.745 412.037 473.161 409.492 478.558 407.836C484.017 406.119 489.782 405.26 495.854 405.26ZM648.991 455.032L667.483 407.468H699.315L646.967 521.272H614.491L632.063 483L600.415 407.468H632.707L648.991 455.032ZM720.964 451.812C721.209 453.836 722.006 455.615 723.356 457.148C724.766 458.62 726.606 459.785 728.876 460.644C731.206 461.441 733.936 461.84 737.064 461.84C740.13 461.84 743.013 461.625 745.712 461.196C748.41 460.705 750.802 460.061 752.888 459.264C755.034 458.467 756.721 457.577 757.948 456.596L770 476.836C768.65 478.001 766.626 479.228 763.928 480.516C761.229 481.804 757.518 482.908 752.796 483.828C748.134 484.748 742.154 485.208 734.856 485.208C726.392 485.208 718.786 483.705 712.04 480.7C705.293 477.695 699.957 473.187 696.032 467.176C692.106 461.104 690.144 453.529 690.144 444.452C690.144 437.092 691.8 430.468 695.112 424.58C698.424 418.631 703.208 413.939 709.464 410.504C715.72 407.008 723.294 405.26 732.188 405.26C740.713 405.26 748.104 406.763 754.36 409.768C760.616 412.712 765.43 417.189 768.804 423.2C772.177 429.211 773.864 436.816 773.864 446.016C773.864 446.507 773.833 447.488 773.772 448.96C773.772 450.432 773.71 451.383 773.588 451.812H720.964ZM743.228 437.092C743.166 435.068 742.706 433.259 741.848 431.664C741.05 430.069 739.885 428.812 738.352 427.892C736.818 426.972 734.948 426.512 732.74 426.512C730.593 426.512 728.692 426.941 727.036 427.8C725.38 428.659 724.092 429.885 723.172 431.48C722.252 433.013 721.73 434.884 721.608 437.092H743.228Z" fill="#030301"/>
<path d="M554.997 451.812C555.243 453.836 556.04 455.615 557.389 457.148C558.8 458.62 560.64 459.785 562.909 460.644C565.24 461.441 567.969 461.84 571.097 461.84C574.164 461.84 577.047 461.625 579.745 461.196C582.444 460.705 584.836 460.061 586.921 459.264C589.068 458.467 590.755 457.577 591.981 456.596L604.033 476.836C602.684 478.001 600.66 479.228 597.961 480.516C595.263 481.804 591.552 482.908 586.829 483.828C582.168 484.748 576.188 485.208 568.889 485.208C560.425 485.208 552.82 483.705 546.073 480.7C539.327 477.695 533.991 473.187 530.065 467.176C526.14 461.104 524.177 453.529 524.177 444.452C524.177 437.092 525.833 430.468 529.145 424.58C532.457 418.631 537.241 413.939 543.497 410.504C549.753 407.008 557.328 405.26 566.221 405.26C574.747 405.26 582.137 406.763 588.393 409.768C594.649 412.712 599.464 417.189 602.837 423.2C606.211 429.211 607.897 436.816 607.897 446.016C607.897 446.507 607.867 447.488 607.805 448.96C607.805 450.432 607.744 451.383 607.621 451.812H554.997ZM577.261 437.092C577.2 435.068 576.74 433.259 575.881 431.664C575.084 430.069 573.919 428.812 572.385 427.892C570.852 426.972 568.981 426.512 566.773 426.512C564.627 426.512 562.725 426.941 561.069 427.8C559.413 428.659 558.125 429.885 557.205 431.48C556.285 433.013 555.764 434.884 555.641 437.092H577.261Z" fill="#E1341E"/>
<path d="M47.544 574.584C47.736 574.584 47.904 574.656 48.048 574.8C48.192 574.928 48.264 575.088 48.264 575.28C48.264 575.488 48.192 575.664 48.048 575.808C47.904 575.936 47.736 576 47.544 576H38.976C38.768 576 38.592 575.928 38.448 575.784C38.32 575.64 38.256 575.472 38.256 575.28V559.92C38.256 559.728 38.328 559.56 38.472 559.416C38.616 559.272 38.8 559.2 39.024 559.2C39.216 559.2 39.384 559.272 39.528 559.416C39.688 559.56 39.768 559.728 39.768 559.92V574.992L39.312 574.584H47.544ZM80.3814 575.256C80.3654 575.464 80.2774 575.64 80.1174 575.784C79.9734 575.928 79.8054 576 79.6134 576C79.3894 576 79.2054 575.928 79.0614 575.784C78.9334 575.64 78.8694 575.464 78.8694 575.256V559.944C78.8694 559.736 78.9414 559.56 79.0854 559.416C79.2294 559.272 79.4134 559.2 79.6374 559.2C79.8294 559.2 79.9974 559.272 80.1414 559.416C80.3014 559.56 80.3814 559.736 80.3814 559.944V575.256ZM113.429 559.2C113.541 559.2 113.653 559.224 113.765 559.272C113.893 559.32 113.997 559.4 114.077 559.512L120.701 569.448L120.053 569.424L126.701 559.512C126.877 559.272 127.093 559.168 127.349 559.2C127.541 559.2 127.701 559.272 127.829 559.416C127.973 559.544 128.045 559.712 128.045 559.92V575.28C128.045 575.472 127.973 575.64 127.829 575.784C127.685 575.928 127.509 576 127.301 576C127.077 576 126.893 575.928 126.749 575.784C126.605 575.64 126.533 575.472 126.533 575.28V561.384L126.965 561.432L120.893 570.624C120.845 570.72 120.773 570.8 120.677 570.864C120.581 570.912 120.469 570.928 120.341 570.912C120.229 570.928 120.117 570.912 120.005 570.864C119.909 570.8 119.829 570.72 119.765 570.624L113.669 561.336L114.125 561.024V575.28C114.125 575.472 114.053 575.64 113.909 575.784C113.781 575.928 113.613 576 113.405 576C113.197 576 113.029 575.928 112.901 575.784C112.773 575.64 112.709 575.472 112.709 575.28V559.92C112.709 559.728 112.773 559.56 112.901 559.416C113.045 559.272 113.221 559.2 113.429 559.2ZM161.913 575.256C161.897 575.464 161.809 575.64 161.649 575.784C161.505 575.928 161.337 576 161.145 576C160.921 576 160.737 575.928 160.593 575.784C160.465 575.64 160.401 575.464 160.401 575.256V559.944C160.401 559.736 160.473 559.56 160.617 559.416C160.761 559.272 160.945 559.2 161.169 559.2C161.361 559.2 161.529 559.272 161.673 559.416C161.833 559.56 161.913 559.736 161.913 559.944V575.256ZM199.233 576C199.009 576 198.825 575.928 198.681 575.784C198.553 575.64 198.489 575.472 198.489 575.28V559.992H199.977V575.28C199.977 575.472 199.905 575.64 199.761 575.784C199.617 575.928 199.441 576 199.233 576ZM193.521 560.568C193.329 560.568 193.161 560.504 193.017 560.376C192.873 560.248 192.801 560.08 192.801 559.872C192.801 559.68 192.873 559.52 193.017 559.392C193.161 559.264 193.329 559.2 193.521 559.2H204.945C205.137 559.2 205.305 559.264 205.449 559.392C205.593 559.52 205.665 559.688 205.665 559.896C205.665 560.104 205.593 560.272 205.449 560.4C205.305 560.512 205.137 560.568 204.945 560.568H193.521ZM245.853 574.584C246.045 574.584 246.213 574.656 246.357 574.8C246.501 574.928 246.573 575.088 246.573 575.28C246.573 575.488 246.501 575.664 246.357 575.808C246.213 575.936 246.045 576 245.853 576H237.285C237.077 576 236.901 575.928 236.757 575.784C236.629 575.64 236.565 575.472 236.565 575.28V559.92C236.565 559.728 236.637 559.56 236.781 559.416C236.925 559.272 237.109 559.2 237.333 559.2C237.525 559.2 237.693 559.272 237.837 559.416C237.997 559.56 238.077 559.728 238.077 559.92V574.992L237.621 574.584H245.853ZM277.899 559.2H286.707C286.899 559.2 287.067 559.272 287.211 559.416C287.355 559.544 287.427 559.712 287.427 559.92C287.427 560.128 287.355 560.296 287.211 560.424C287.067 560.552 286.899 560.616 286.707 560.616H278.451L278.691 560.208V566.952L278.427 566.64H285.627C285.819 566.64 285.987 566.712 286.131 566.856C286.275 567 286.347 567.168 286.347 567.36C286.347 567.568 286.275 567.736 286.131 567.864C285.987 567.992 285.819 568.056 285.627 568.056H278.475L278.691 567.816V574.728L278.571 574.584H286.707C286.899 574.584 287.067 574.656 287.211 574.8C287.355 574.944 287.427 575.112 287.427 575.304C287.427 575.512 287.355 575.68 287.211 575.808C287.067 575.936 286.899 576 286.707 576H277.899C277.707 576 277.539 575.928 277.395 575.784C277.251 575.64 277.179 575.472 277.179 575.28V559.92C277.179 559.728 277.251 559.56 277.395 559.416C277.539 559.272 277.707 559.2 277.899 559.2ZM323.291 576.24C322.075 576.256 321.019 576.064 320.123 575.664C319.227 575.264 318.371 574.664 317.555 573.864C317.475 573.8 317.403 573.72 317.339 573.624C317.291 573.528 317.267 573.416 317.267 573.288C317.267 573.096 317.339 572.92 317.483 572.76C317.643 572.6 317.819 572.52 318.011 572.52C318.203 572.52 318.379 572.6 318.539 572.76C319.163 573.432 319.867 573.944 320.651 574.296C321.451 574.648 322.307 574.824 323.219 574.824C323.987 574.824 324.667 574.704 325.259 574.464C325.867 574.224 326.347 573.88 326.699 573.432C327.051 572.984 327.227 572.464 327.227 571.872C327.227 571.136 327.027 570.544 326.627 570.096C326.227 569.632 325.699 569.256 325.043 568.968C324.387 568.664 323.659 568.392 322.859 568.152C322.203 567.96 321.579 567.744 320.987 567.504C320.395 567.248 319.867 566.944 319.403 566.592C318.939 566.224 318.579 565.776 318.323 565.248C318.067 564.72 317.939 564.08 317.939 563.328C317.939 562.48 318.163 561.728 318.611 561.072C319.059 560.416 319.691 559.904 320.507 559.536C321.339 559.152 322.299 558.96 323.387 558.96C324.331 558.96 325.235 559.12 326.099 559.44C326.979 559.76 327.675 560.232 328.187 560.856C328.427 561.112 328.547 561.344 328.547 561.552C328.547 561.712 328.467 561.872 328.307 562.032C328.147 562.192 327.971 562.272 327.779 562.272C327.619 562.272 327.483 562.216 327.371 562.104C327.099 561.768 326.755 561.472 326.339 561.216C325.923 560.944 325.459 560.736 324.947 560.592C324.451 560.448 323.931 560.376 323.387 560.376C322.635 560.376 321.955 560.496 321.347 560.736C320.755 560.96 320.283 561.288 319.931 561.72C319.595 562.152 319.427 562.672 319.427 563.28C319.427 563.952 319.619 564.504 320.003 564.936C320.387 565.368 320.891 565.728 321.515 566.016C322.139 566.288 322.803 566.544 323.507 566.784C324.195 566.976 324.851 567.2 325.475 567.456C326.115 567.696 326.675 568 327.155 568.368C327.651 568.736 328.035 569.2 328.307 569.76C328.595 570.32 328.739 571.024 328.739 571.872C328.739 572.688 328.507 573.424 328.043 574.08C327.579 574.736 326.939 575.256 326.123 575.64C325.323 576.024 324.379 576.224 323.291 576.24ZM364.608 576.24C363.392 576.256 362.336 576.064 361.44 575.664C360.544 575.264 359.688 574.664 358.872 573.864C358.792 573.8 358.72 573.72 358.656 573.624C358.608 573.528 358.584 573.416 358.584 573.288C358.584 573.096 358.656 572.92 358.8 572.76C358.96 572.6 359.136 572.52 359.328 572.52C359.52 572.52 359.696 572.6 359.856 572.76C360.48 573.432 361.184 573.944 361.968 574.296C362.768 574.648 363.624 574.824 364.536 574.824C365.304 574.824 365.984 574.704 366.576 574.464C367.184 574.224 367.664 573.88 368.016 573.432C368.368 572.984 368.544 572.464 368.544 571.872C368.544 571.136 368.344 570.544 367.944 570.096C367.544 569.632 367.016 569.256 366.36 568.968C365.704 568.664 364.976 568.392 364.176 568.152C363.52 567.96 362.896 567.744 362.304 567.504C361.712 567.248 361.184 566.944 360.72 566.592C360.256 566.224 359.896 565.776 359.64 565.248C359.384 564.72 359.256 564.08 359.256 563.328C359.256 562.48 359.48 561.728 359.928 561.072C360.376 560.416 361.008 559.904 361.824 559.536C362.656 559.152 363.616 558.96 364.704 558.96C365.648 558.96 366.552 559.12 367.416 559.44C368.296 559.76 368.992 560.232 369.504 560.856C369.744 561.112 369.864 561.344 369.864 561.552C369.864 561.712 369.784 561.872 369.624 562.032C369.464 562.192 369.288 562.272 369.096 562.272C368.936 562.272 368.8 562.216 368.688 562.104C368.416 561.768 368.072 561.472 367.656 561.216C367.24 560.944 366.776 560.736 366.264 560.592C365.768 560.448 365.248 560.376 364.704 560.376C363.952 560.376 363.272 560.496 362.664 560.736C362.072 560.96 361.6 561.288 361.248 561.72C360.912 562.152 360.744 562.672 360.744 563.28C360.744 563.952 360.936 564.504 361.32 564.936C361.704 565.368 362.208 565.728 362.832 566.016C363.456 566.288 364.12 566.544 364.824 566.784C365.512 566.976 366.168 567.2 366.792 567.456C367.432 567.696 367.992 568 368.472 568.368C368.968 568.736 369.352 569.2 369.624 569.76C369.912 570.32 370.056 571.024 370.056 571.872C370.056 572.688 369.824 573.424 369.36 574.08C368.896 574.736 368.256 575.256 367.44 575.64C366.64 576.024 365.696 576.224 364.608 576.24ZM447.959 560.448C448.151 560.576 448.263 560.744 448.295 560.952C448.327 561.144 448.279 561.336 448.151 561.528C448.039 561.672 447.895 561.752 447.719 561.768C447.543 561.784 447.375 561.752 447.215 561.672C446.607 561.272 445.951 560.96 445.247 560.736C444.559 560.512 443.815 560.4 443.015 560.4C442.039 560.4 441.127 560.576 440.279 560.928C439.447 561.264 438.719 561.76 438.095 562.416C437.471 563.056 436.983 563.816 436.631 564.696C436.295 565.576 436.127 566.544 436.127 567.6C436.127 568.688 436.303 569.68 436.655 570.576C437.007 571.456 437.495 572.216 438.119 572.856C438.759 573.496 439.495 573.984 440.327 574.32C441.159 574.656 442.055 574.824 443.015 574.824C443.799 574.824 444.535 574.712 445.223 574.488C445.927 574.264 446.583 573.96 447.191 573.576C447.351 573.48 447.519 573.448 447.695 573.48C447.887 573.496 448.039 573.584 448.151 573.744C448.295 573.92 448.343 574.112 448.295 574.32C448.263 574.512 448.159 574.664 447.983 574.776C447.583 575.032 447.111 575.272 446.567 575.496C446.023 575.72 445.447 575.896 444.839 576.024C444.231 576.168 443.623 576.24 443.015 576.24C441.863 576.24 440.783 576.032 439.775 575.616C438.767 575.2 437.871 574.616 437.087 573.864C436.303 573.096 435.687 572.184 435.239 571.128C434.807 570.072 434.591 568.896 434.591 567.6C434.591 566.352 434.807 565.208 435.239 564.168C435.671 563.112 436.271 562.2 437.039 561.432C437.807 560.664 438.703 560.064 439.727 559.632C440.751 559.2 441.847 558.984 443.015 558.984C443.927 558.984 444.807 559.112 445.655 559.368C446.503 559.624 447.271 559.984 447.959 560.448ZM480.031 576C479.791 576 479.591 575.928 479.431 575.784C479.287 575.64 479.215 575.472 479.215 575.28V559.92C479.215 559.728 479.287 559.56 479.431 559.416C479.575 559.272 479.743 559.2 479.935 559.2H486.415C487.327 559.2 488.143 559.4 488.863 559.8C489.583 560.184 490.143 560.72 490.543 561.408C490.959 562.096 491.167 562.872 491.167 563.736C491.167 564.44 491.039 565.088 490.783 565.68C490.527 566.272 490.167 566.776 489.703 567.192C489.239 567.592 488.719 567.888 488.143 568.08L487.303 567.816C487.895 567.864 488.447 568.056 488.959 568.392C489.471 568.712 489.879 569.16 490.183 569.736C490.503 570.296 490.671 570.976 490.687 571.776C490.703 572.464 490.735 573 490.783 573.384C490.847 573.768 490.935 574.056 491.047 574.248C491.159 574.44 491.303 574.592 491.479 574.704C491.639 574.8 491.743 574.936 491.791 575.112C491.855 575.288 491.839 575.456 491.743 575.616C491.679 575.744 491.583 575.84 491.455 575.904C491.343 575.952 491.223 575.976 491.095 575.976C490.967 575.976 490.839 575.944 490.711 575.88C490.487 575.752 490.255 575.552 490.015 575.28C489.791 575.008 489.599 574.608 489.439 574.08C489.295 573.552 489.223 572.816 489.223 571.872C489.223 571.248 489.119 570.736 488.911 570.336C488.719 569.936 488.463 569.632 488.143 569.424C487.839 569.2 487.495 569.048 487.111 568.968C486.743 568.872 486.391 568.824 486.055 568.824H480.463L480.727 568.488V575.28C480.727 575.472 480.663 575.64 480.535 575.784C480.407 575.928 480.239 576 480.031 576ZM480.463 567.504H486.487C487.031 567.456 487.543 567.28 488.023 566.976C488.503 566.656 488.887 566.224 489.175 565.68C489.479 565.136 489.631 564.504 489.631 563.784C489.631 562.872 489.319 562.12 488.695 561.528C488.087 560.92 487.287 560.616 486.295 560.616H480.559L480.727 560.28V567.84L480.463 567.504ZM523.853 559.2H532.661C532.853 559.2 533.021 559.272 533.165 559.416C533.309 559.544 533.381 559.712 533.381 559.92C533.381 560.128 533.309 560.296 533.165 560.424C533.021 560.552 532.853 560.616 532.661 560.616H524.405L524.645 560.208V566.952L524.381 566.64H531.581C531.773 566.64 531.941 566.712 532.085 566.856C532.229 567 532.301 567.168 532.301 567.36C532.301 567.568 532.229 567.736 532.085 567.864C531.941 567.992 531.773 568.056 531.581 568.056H524.429L524.645 567.816V574.728L524.525 574.584H532.661C532.853 574.584 533.021 574.656 533.165 574.8C533.309 574.944 533.381 575.112 533.381 575.304C533.381 575.512 533.309 575.68 533.165 575.808C533.021 575.936 532.853 576 532.661 576H523.853C523.661 576 523.493 575.928 523.349 575.784C523.205 575.64 523.133 575.472 523.133 575.28V559.92C523.133 559.728 523.205 559.56 523.349 559.416C523.493 559.272 523.661 559.2 523.853 559.2ZM570.229 561.048L564.397 575.544C564.333 575.704 564.245 575.824 564.133 575.904C564.021 575.984 563.893 576.024 563.749 576.024C563.525 576.024 563.357 575.968 563.245 575.856C563.133 575.728 563.069 575.576 563.053 575.4C563.037 575.32 563.045 575.224 563.077 575.112L569.413 559.608C569.493 559.432 569.589 559.312 569.701 559.248C569.829 559.168 569.973 559.128 570.133 559.128C570.293 559.128 570.429 559.176 570.541 559.272C570.669 559.352 570.765 559.464 570.829 559.608L577.141 575.04C577.173 575.136 577.189 575.232 577.189 575.328C577.189 575.552 577.117 575.728 576.973 575.856C576.829 575.968 576.661 576.024 576.469 576.024C576.309 576.024 576.165 575.984 576.037 575.904C575.925 575.808 575.837 575.688 575.773 575.544L569.797 560.952L570.229 561.048ZM565.789 571.152L566.389 569.736H573.829L574.117 571.152H565.789ZM611.789 576C611.565 576 611.381 575.928 611.237 575.784C611.109 575.64 611.045 575.472 611.045 575.28V559.992H612.533V575.28C612.533 575.472 612.461 575.64 612.317 575.784C612.173 575.928 611.997 576 611.789 576ZM606.077 560.568C605.885 560.568 605.717 560.504 605.573 560.376C605.429 560.248 605.357 560.08 605.357 559.872C605.357 559.68 605.429 559.52 605.573 559.392C605.717 559.264 605.885 559.2 606.077 559.2H617.501C617.693 559.2 617.861 559.264 618.005 559.392C618.149 559.52 618.221 559.688 618.221 559.896C618.221 560.104 618.149 560.272 618.005 560.4C617.861 560.512 617.693 560.568 617.501 560.568H606.077ZM650.634 575.256C650.618 575.464 650.53 575.64 650.37 575.784C650.226 575.928 650.058 576 649.866 576C649.642 576 649.458 575.928 649.314 575.784C649.186 575.64 649.122 575.464 649.122 575.256V559.944C649.122 559.736 649.194 559.56 649.338 559.416C649.482 559.272 649.666 559.2 649.89 559.2C650.082 559.2 650.25 559.272 650.394 559.416C650.554 559.56 650.634 559.736 650.634 559.944V575.256ZM697.938 567.6C697.938 568.864 697.738 570.024 697.338 571.08C696.954 572.12 696.402 573.032 695.682 573.816C694.962 574.584 694.106 575.184 693.114 575.616C692.138 576.032 691.066 576.24 689.898 576.24C688.73 576.24 687.65 576.032 686.658 575.616C685.682 575.184 684.834 574.584 684.114 573.816C683.394 573.032 682.834 572.12 682.434 571.08C682.05 570.024 681.858 568.864 681.858 567.6C681.858 566.336 682.05 565.184 682.434 564.144C682.834 563.088 683.394 562.176 684.114 561.408C684.834 560.624 685.682 560.024 686.658 559.608C687.65 559.176 688.73 558.96 689.898 558.96C691.066 558.96 692.138 559.176 693.114 559.608C694.106 560.024 694.962 560.624 695.682 561.408C696.402 562.176 696.954 563.088 697.338 564.144C697.738 565.184 697.938 566.336 697.938 567.6ZM696.402 567.6C696.402 566.176 696.122 564.928 695.562 563.856C695.018 562.768 694.258 561.92 693.282 561.312C692.306 560.704 691.178 560.4 689.898 560.4C688.634 560.4 687.506 560.704 686.514 561.312C685.538 561.92 684.77 562.768 684.21 563.856C683.666 564.928 683.394 566.176 683.394 567.6C683.394 569.024 683.666 570.28 684.21 571.368C684.77 572.44 685.538 573.28 686.514 573.888C687.506 574.496 688.634 574.8 689.898 574.8C691.178 574.8 692.306 574.496 693.282 573.888C694.258 573.28 695.018 572.44 695.562 571.368C696.122 570.28 696.402 569.024 696.402 567.6ZM741.465 559.2C741.673 559.2 741.833 559.264 741.945 559.392C742.073 559.52 742.137 559.68 742.137 559.872V575.232C742.137 575.472 742.057 575.664 741.897 575.808C741.753 575.936 741.585 576 741.393 576C741.297 576 741.193 575.984 741.081 575.952C740.969 575.904 740.881 575.84 740.817 575.76L730.113 561.336L730.521 561.12V575.352C730.521 575.528 730.457 575.68 730.329 575.808C730.201 575.936 730.041 576 729.849 576C729.641 576 729.473 575.936 729.345 575.808C729.233 575.68 729.177 575.528 729.177 575.352V559.92C729.177 559.68 729.249 559.504 729.393 559.392C729.537 559.264 729.697 559.2 729.873 559.2C729.969 559.2 730.073 559.224 730.185 559.272C730.297 559.304 730.385 559.368 730.449 559.464L741.033 573.72L740.793 574.152V559.872C740.793 559.68 740.857 559.52 740.985 559.392C741.129 559.264 741.289 559.2 741.465 559.2Z" fill="black"/>
<path d="M384.4 0.366093C365.533 1.65151 347.04 9.364 330.371 22.923C326.1 26.4061 317.434 35.0723 313.785 39.509C294.338 63.1441 282.396 93.2062 279.162 126.627C278.084 137.864 278.291 157.145 279.618 165.48C279.867 167.014 280.613 167.304 280.613 165.853C280.613 164.36 283.972 152.957 286.128 147.152C302.05 104.36 335.471 75.4592 383.031 63.3929C405.132 57.7951 430.965 56.2609 456.217 59.0391C467.744 60.3245 483.46 63.3514 495.816 66.7101C507.468 69.8614 524.344 76.0812 534.296 80.8082C537.157 82.1765 539.603 83.2131 539.686 83.0887C539.935 82.84 535.54 76.2056 531.6 70.981C515.429 49.3362 493.37 30.8843 469.279 18.818C452.071 10.1933 432.375 4.18087 412.886 1.61004C407.662 0.946603 391.076 -0.214416 389.459 0.0343734C389.251 0.0343734 386.971 0.200233 384.4 0.366093Z" fill="#E1341E"/>
<path d="M290.689 30.5526C252.458 56.8828 226.418 95.4867 216.798 140.186C213.688 154.616 212.237 173.731 213.398 185.01C215.181 201.969 221.691 218.14 232.721 232.777C252.583 259.149 284.303 277.891 321.58 285.231C334.144 287.718 340.364 288.257 355.457 288.299C367.814 288.299 378.221 287.76 379.383 287.055C379.631 286.889 377.392 286.184 374.448 285.396C361.055 281.955 348.076 276.523 336.425 269.557C320.668 260.103 304.497 244.056 294.504 228.009C283.64 210.469 276.052 189.032 272.735 166.516C271.076 155.03 270.869 152.128 270.869 136.164C270.869 119.702 271.117 115.888 272.983 102.909C276.342 79.1495 283.889 53.6486 293.716 32.7502C295.955 27.9817 296.204 27.3183 295.665 27.3183C295.457 27.3598 293.26 28.811 290.689 30.5526Z" fill="#961EE1"/>
<path d="M417.033 65.7564C410.15 66.0466 401.027 66.793 400.737 67.0833C400.53 67.2906 402.147 67.8711 404.262 68.3687C418.733 71.9347 435.319 79.1081 447.095 86.945C455.72 92.6672 460.986 97.0625 468.242 104.485C491.628 128.493 504.814 159.716 508.753 200.435C509.5 208.52 509.375 229.543 508.504 238.375C505.602 267.857 498.304 295.058 486.279 321.305C484.911 324.332 483.833 326.861 483.916 326.944C484.123 327.193 493.038 321.056 497.765 317.449C515.471 303.848 531.02 286.35 542.423 267.193C558.014 241.029 566.804 209.681 566.846 180.117C566.887 171.16 566.473 166.516 564.98 159.633C558.345 128.493 534.669 100.504 500.336 83.2546C475.457 70.7737 445.644 64.5124 417.033 65.7564Z" fill="#6AE11E"/>
<path d="M345.92 131.147C325.602 140.062 308.187 154.989 296.577 173.482L294.338 177.048L296.287 180.241C299.562 185.673 305.45 193.137 310.634 198.486C319.092 207.152 327.634 213.703 337.461 218.97C342.562 221.706 350.108 225.106 351.062 225.106C351.352 225.106 350.398 224.111 348.989 222.867C342.023 216.772 335.513 207.193 332.237 198.154C329.956 191.81 329.085 186.876 328.837 179.205C328.671 174.643 328.795 170.87 329.127 168.631C331.117 154.948 337.337 142.84 347.496 132.93C349.735 130.732 351.477 128.908 351.269 128.908C351.062 128.949 348.657 129.944 345.92 131.147Z" fill="#030301"/>
<path d="M432.831 133.178C441.912 142.176 447.551 152.418 450.246 164.982C451.034 168.631 451.2 170.663 451.2 177.214C451.241 184.015 451.117 185.673 450.288 189.405C447.509 201.803 442.202 211.547 433.37 220.421C430.841 222.992 428.892 225.106 429.016 225.106C429.762 225.106 435.111 222.701 440.46 220.006C446.639 216.896 454.351 211.92 459.617 207.65C463.805 204.291 472.513 195.542 475.913 191.354C479.106 187.373 485.45 177.961 485.45 177.173C485.45 175.182 475.872 162.536 469.113 155.528C463.017 149.225 457.71 144.83 450.412 139.979C445.561 136.744 434.282 130.856 430.426 129.571L428.519 128.908L432.831 133.178Z" fill="#030301"/>
<path d="M382.285 135.708C377.641 136.62 377.641 136.579 380.502 138.486C383.736 140.642 386.017 143.296 387.8 146.986C393.646 159.011 387.136 172.985 374.075 176.385C365.575 178.583 355.996 174.768 351.269 167.304C350.606 166.268 349.942 165.397 349.818 165.397C349.403 165.397 348.574 169.668 348.201 173.648C347.123 185.715 351.269 197.408 359.77 206.198C363.501 210.013 366.694 212.377 371.214 214.616C377.848 217.933 382.824 219.052 390.495 219.011C395.056 218.97 396.839 218.762 400.115 217.933C415.042 214.035 426.114 203.296 430.509 188.41C431.877 183.807 432.375 175.887 431.545 170.87C429.265 156.689 420.682 145.162 407.869 139.066C401.691 136.164 398.747 135.501 391.532 135.293C387.344 135.21 384.317 135.335 382.285 135.708Z" fill="#030301"/>
<path d="M499.548 187.912C499.548 189.115 496.148 200.725 494.406 205.576C486.611 226.848 474.918 244.553 459.327 258.486C449.624 267.193 440.834 273.081 428.85 279.011C413.798 286.433 399.534 290.911 381.248 293.938C364.04 296.799 341.981 297.172 322.285 294.933C296.121 291.989 269.044 284.277 244.165 272.75C242.258 271.837 240.599 271.215 240.475 271.34C240.185 271.63 245.202 279.135 249.224 284.401C265.603 305.88 287.081 323.627 311.256 335.61C336.508 348.133 366.528 354.933 392.154 353.897C402.271 353.523 408.491 352.362 418.277 349.004C432.333 344.194 446.348 335.154 458.29 323.171C490.218 291.16 505.934 241.568 500.502 189.778C500.377 188.451 500.087 187.373 499.921 187.373C499.714 187.373 499.548 187.622 499.548 187.912Z" fill="#1ECBE1"/>
</svg>
